<?xml version="1.0" standalone="no"?>
<!DOCTYPE svg PUBLIC "-//W3C//DTD SVG 20010904//EN"
 "http://www.w3.org/TR/2001/REC-SVG-20010904/DTD/svg10.dtd">
<svg version="1.0" xmlns="http://www.w3.org/2000/svg"
 width="547.000000pt" height="547.000000pt" viewBox="0 0 547.000000 547.000000"
 preserveAspectRatio="xMidYMid meet">

<g transform="translate(0.000000,547.000000) scale(0.100000,-0.100000)"
fill="#000000" stroke="none">
<path d="M0 3155 l0 -85 335 0 335 0 0 85 0 85 -335 0 -335 0 0 -85z"/>
<path d="M810 2741 l0 -501 100 0 100 0 2 178 3 177 80 3 80 2 95 -180 95
-180 113 0 113 0 -17 32 c-9 18 -51 96 -94 173 -42 77 -82 150 -88 161 -10 19
-7 24 36 51 159 99 175 373 30 498 -83 70 -122 78 -400 83 l-248 4 0 -501z
m460 307 c58 -30 86 -91 75 -163 -13 -93 -73 -125 -237 -125 l-98 0 0 155 0
155 108 0 c92 0 114 -3 152 -22z"/>
<path d="M1680 2741 l0 -501 105 0 105 0 0 165 0 165 129 0 c213 0 314 48 378
178 25 50 28 68 28 152 0 81 -4 103 -26 150 -34 72 -79 116 -159 154 l-65 31
-247 3 -248 4 0 -501z m466 303 c55 -41 69 -70 69 -144 0 -82 -18 -113 -85
-147 -37 -19 -60 -23 -142 -23 l-98 0 0 171 0 171 114 -4 c97 -2 119 -6 142
-24z"/>
<path d="M2540 2740 l0 -500 105 0 105 0 0 315 c0 173 3 315 8 315 4 -1 104
-142 222 -315 l215 -314 88 -1 87 0 0 500 0 500 -100 0 -100 0 0 -316 c0 -204
-4 -314 -10 -312 -5 2 -106 143 -223 313 l-213 310 -92 3 -92 3 0 -501z"/>
<path d="M5110 3080 l0 -90 -50 0 -50 0 0 -75 0 -75 50 0 50 0 0 -228 c0 -216
1 -230 23 -272 25 -50 70 -85 131 -101 47 -13 172 -7 188 9 8 8 7 30 -3 79
l-15 68 -41 -3 c-31 -3 -47 2 -62 17 -20 20 -21 32 -21 226 l0 205 70 0 70 0
0 75 0 75 -70 0 -70 0 0 90 0 90 -100 0 -100 0 0 -90z"/>
<path d="M3777 2990 c-174 -31 -287 -181 -287 -380 0 -185 92 -321 249 -366
75 -22 229 -15 292 13 64 29 113 76 144 136 l26 52 -90 9 -90 8 -33 -35 c-57
-60 -150 -70 -225 -25 -35 21 -73 89 -73 131 l0 27 256 0 256 0 -4 88 c-7 116
-35 188 -98 252 -77 76 -203 111 -323 90z m143 -156 c47 -19 79 -59 87 -109
l6 -35 -163 0 -162 0 6 33 c9 46 36 79 86 105 52 26 85 28 140 6z"/>
<path d="M4263 2983 c2 -5 51 -88 107 -186 90 -157 101 -181 92 -202 -6 -12
-54 -95 -106 -183 -53 -89 -96 -163 -96 -166 0 -3 45 -6 99 -6 l100 0 73 130
c40 71 76 126 81 121 5 -5 39 -62 77 -127 l67 -119 102 -3 c55 -1 101 -1 101
2 0 2 -48 84 -107 183 -58 98 -106 183 -106 188 0 6 48 92 106 193 l106 182
-102 0 -102 0 -70 -130 c-38 -72 -72 -130 -76 -130 -3 0 -37 59 -74 130 l-68
130 -104 0 c-57 0 -102 -3 -100 -7z"/>
<path d="M0 2535 l0 -295 340 0 340 0 0 85 0 85 -235 0 -235 0 0 125 0 125
215 0 215 0 0 85 0 85 -320 0 -320 0 0 -295z"/>
</g>
</svg>
