<?xml version="1.0" standalone="no"?>
<!DOCTYPE svg PUBLIC "-//W3C//DTD SVG 20010904//EN"
 "http://www.w3.org/TR/2001/REC-SVG-20010904/DTD/svg10.dtd">
<svg version="1.0" xmlns="http://www.w3.org/2000/svg"
 width="1400.000000pt" height="758.000000pt" viewBox="0 0 1400.000000 758.000000"
 preserveAspectRatio="xMidYMid meet">

<g transform="translate(0.000000,758.000000) scale(0.100000,-0.100000)"
fill="#000000" stroke="none">
<path d="M2790 4865 l0 -165 640 0 639 0 3 165 3 165 -642 0 -643 0 0 -165z"/>
<path d="M4887 4569 c-101 -24 -188 -99 -233 -204 -16 -36 -32 -65 -36 -65 -5
0 -8 59 -8 130 l0 130 -195 0 -195 0 0 -730 0 -730 200 0 200 0 0 439 c0 506
0 507 82 597 79 85 182 112 346 89 l52 -7 0 175 0 174 -37 7 c-51 8 -130 6
-176 -5z"/>
<path d="M5705 4570 c-216 -35 -374 -137 -450 -294 -46 -95 -53 -126 -29 -126
11 0 93 -7 183 -15 91 -8 165 -13 165 -12 1 1 10 20 21 41 48 95 204 150 328
115 114 -31 179 -179 109 -249 -37 -37 -72 -46 -282 -70 -194 -23 -293 -46
-378 -89 -86 -44 -137 -93 -174 -169 -32 -65 -33 -70 -33 -192 0 -107 4 -133
23 -182 46 -115 168 -209 309 -238 87 -18 275 -8 343 18 73 29 146 85 195 151
l40 54 3 -106 3 -107 189 0 190 0 0 514 c0 299 -4 536 -10 567 -16 85 -73 191
-132 244 -63 56 -169 108 -268 130 -91 20 -263 27 -345 15z m344 -1028 c-15
-56 -79 -126 -143 -159 -40 -21 -69 -27 -136 -31 -78 -3 -90 -1 -139 25 -66
34 -91 75 -91 149 0 112 71 160 291 198 79 14 162 31 184 39 l40 14 3 -96 c2
-53 -2 -115 -9 -139z"/>
<path d="M7450 4569 c-36 -3 -91 -16 -123 -28 -70 -27 -165 -112 -205 -182
-44 -79 -52 -67 -52 76 l0 125 -195 0 -195 0 0 -1005 0 -1005 200 0 200 0 0
398 c1 353 3 395 16 377 8 -11 31 -43 52 -72 82 -113 178 -162 332 -170 116
-7 183 6 280 53 148 71 261 226 312 429 32 129 32 400 0 525 -85 330 -316 508
-622 479z m56 -337 c85 -43 150 -140 175 -261 18 -86 7 -283 -19 -356 -59
-163 -187 -247 -330 -217 -156 33 -245 166 -259 388 -15 238 71 414 227 465
45 15 162 4 206 -19z"/>
<path d="M9017 4569 c-129 -14 -244 -87 -314 -200 -20 -33 -40 -59 -44 -59 -5
0 -9 56 -9 125 l0 125 -195 0 -195 0 -2 -1005 -3 -1005 200 0 200 0 -3 387
c-1 232 1 390 7 396 6 6 17 -5 29 -29 71 -139 220 -224 392 -224 180 0 321 64
428 194 123 149 184 396 162 654 -12 138 -33 220 -86 329 -107 224 -314 338
-567 312z m35 -325 c143 -48 229 -233 215 -459 -14 -208 -94 -339 -233 -381
-168 -50 -317 53 -369 256 -22 86 -17 301 9 375 39 109 112 189 197 213 52 15
130 14 181 -4z"/>
<path d="M10434 4570 c-238 -26 -429 -157 -527 -361 -66 -137 -82 -215 -82
-389 0 -174 16 -252 82 -388 98 -206 277 -323 538 -353 285 -34 563 71 680
256 34 52 79 164 71 173 -10 10 -361 30 -365 20 -12 -34 -75 -98 -121 -122
-43 -23 -71 -31 -132 -34 -207 -12 -334 95 -363 306 l-7 52 501 0 501 0 0 99
c0 315 -120 550 -341 666 -120 63 -284 91 -435 75z m227 -317 c61 -27 110 -72
137 -127 28 -55 44 -146 28 -152 -6 -2 -146 -3 -311 -2 l-300 3 3 35 c2 19 16
63 33 97 35 73 96 128 172 155 66 24 173 20 238 -9z"/>
<path d="M2790 3630 l0 -530 200 0 200 0 2 363 3 362 398 3 397 2 0 165 0 165
-600 0 -600 0 0 -530z"/>
</g>
</svg>
