<?xml version="1.0" standalone="no"?>
<!DOCTYPE svg PUBLIC "-//W3C//DTD SVG 20010904//EN"
 "http://www.w3.org/TR/2001/REC-SVG-20010904/DTD/svg10.dtd">
<svg version="1.0" xmlns="http://www.w3.org/2000/svg"
 width="512.000000pt" height="512.000000pt" viewBox="0 0 512.000000 512.000000"
 preserveAspectRatio="xMidYMid meet">

<g transform="translate(0.000000,512.000000) scale(0.100000,-0.100000)"
fill="#000000" stroke="none">
<path d="M2362 5098 c-5 -13 -24 -66 -42 -118 -18 -52 -38 -100 -44 -107 -6
-6 -39 -23 -73 -37 l-62 -26 -121 57 -121 57 -135 -135 -135 -135 57 -121 57
-122 -28 -66 c-16 -36 -32 -68 -37 -71 -5 -3 -62 -25 -126 -48 l-117 -43 -3
-190 -2 -190 127 -45 127 -45 29 -71 29 -72 -56 -117 -56 -118 136 -136 136
-137 113 54 c63 30 119 54 127 54 7 0 41 -12 75 -26 69 -29 59 -14 121 -189
l29 -80 193 0 193 0 29 80 c63 177 52 161 124 189 35 14 70 26 77 26 6 0 62
-24 123 -54 l112 -54 136 137 136 137 -57 117 -57 117 30 71 29 72 128 45 127
45 -2 190 -3 191 -124 46 -125 45 -29 68 -30 68 57 122 57 121 -135 135 -135
135 -119 -57 -120 -56 -63 25 c-35 14 -68 30 -74 35 -5 6 -28 63 -51 127 l-42
117 -191 3 c-191 2 -191 2 -199 -20z m309 -195 c50 -152 41 -142 186 -201
l129 -53 103 47 102 48 61 -61 60 -61 -46 -97 c-25 -54 -46 -103 -46 -109 0
-6 23 -67 52 -135 58 -137 41 -122 191 -175 l77 -28 0 -85 0 -84 -32 -13 c-18
-7 -67 -25 -109 -40 l-75 -27 -52 -124 c-29 -69 -52 -130 -52 -135 0 -5 21
-55 47 -111 l46 -100 -59 -60 -60 -60 -99 47 c-55 26 -104 47 -110 47 -5 0
-67 -24 -137 -53 l-127 -52 -22 -67 c-12 -36 -30 -85 -40 -108 l-18 -43 -81 0
-81 0 -18 43 c-10 23 -28 72 -40 108 l-22 67 -131 55 -131 54 -106 -49 -105
-49 -60 60 -59 60 46 100 c26 56 47 105 47 110 0 9 -99 253 -106 260 -2 2 -50
20 -106 40 l-103 36 -3 86 -3 86 108 39 107 39 53 124 c29 69 53 130 53 137 0
6 -21 55 -46 109 l-46 97 58 59 c32 32 62 59 66 59 4 0 52 -21 106 -46 l98
-45 128 52 c144 59 135 49 185 202 l23 67 88 0 88 0 23 -67z"/>
<path d="M2458 4434 c-157 -37 -275 -145 -329 -300 -17 -48 -20 -77 -17 -159
3 -87 8 -109 35 -168 36 -76 116 -166 181 -204 140 -82 324 -82 464 0 65 38
145 128 181 204 27 59 32 81 35 168 3 82 0 111 -17 159 -55 157 -173 263 -333
301 -76 18 -125 18 -200 -1z m236 -168 c189 -93 230 -341 80 -489 -68 -67
-106 -82 -214 -82 -78 0 -102 4 -135 22 -123 66 -192 207 -165 337 40 194 256
299 434 212z"/>
<path d="M574 4319 c-63 -15 -145 -69 -186 -123 -43 -57 -73 -155 -65 -212 4
-30 -20 -120 -105 -404 -91 -301 -117 -375 -148 -425 -50 -77 -74 -169 -66
-250 9 -90 66 -197 136 -254 l55 -44 117 -281 c65 -155 117 -285 117 -291 0
-5 -17 -22 -38 -36 -52 -36 -84 -106 -89 -191 -3 -51 -8 -68 -19 -68 -31 0
-125 -53 -168 -96 -27 -26 -60 -73 -78 -112 l-32 -67 0 -585 0 -585 24 -60
c33 -82 124 -173 206 -206 l60 -24 2265 0 2265 0 60 24 c82 33 173 124 206
206 l24 60 0 585 0 585 -32 67 c-18 39 -51 86 -78 112 -44 43 -137 96 -169 96
-13 0 -16 12 -16 54 0 91 -49 192 -106 218 -13 6 -24 15 -24 20 0 6 52 137
116 291 88 214 123 287 143 301 91 68 156 177 167 281 8 80 -16 173 -66 250
-31 49 -58 124 -146 415 -91 302 -107 366 -109 430 -3 135 -72 243 -187 295
-77 35 -166 39 -248 11 -70 -24 -158 -110 -184 -178 l-18 -47 -122 -3 -121 -3
-3 -72 -3 -73 125 0 124 0 11 -33 c21 -62 67 -123 123 -159 l54 -36 27 -312
c19 -223 23 -318 16 -332 -16 -30 -23 -149 -11 -192 l11 -38 -260 -384 c-258
-380 -261 -384 -315 -410 -95 -45 -144 -124 -144 -233 l0 -51 -1110 0 -1110 0
0 51 c0 109 -49 188 -144 233 -54 26 -57 30 -315 410 l-260 384 11 38 c12 43
5 162 -11 192 -7 14 -3 109 16 332 l27 312 54 36 c56 36 102 97 123 159 l11
33 124 0 125 0 -3 73 -3 72 -121 3 -122 3 -18 47 c-25 66 -114 153 -179 175
-64 22 -139 28 -191 16z m133 -150 c15 -5 41 -22 57 -37 116 -109 41 -301
-117 -302 -130 0 -216 134 -158 248 23 45 46 66 91 86 42 18 88 20 127 5z
m3830 -4 c118 -49 150 -188 65 -278 -39 -41 -75 -57 -129 -57 -153 1 -230 181
-125 294 52 55 120 70 189 41z m-4032 -453 c23 -11 58 -24 79 -28 l39 -7 -7
-86 c-3 -47 -11 -143 -18 -213 l-11 -127 -46 23 c-62 31 -93 38 -177 37 l-72
0 7 27 c31 105 124 409 128 415 3 5 12 2 21 -6 10 -8 35 -24 57 -35z m4250
-157 c32 -104 61 -202 66 -217 l7 -27 -72 0 c-84 1 -115 -6 -177 -37 l-46 -23
-11 127 c-7 70 -15 166 -18 213 l-7 86 39 7 c42 8 129 49 139 67 4 6 11 7 15
2 4 -4 34 -93 65 -198z m-4277 -414 c142 -72 165 -271 44 -371 -115 -95 -286
-59 -348 73 -92 198 111 396 304 298z m4370 0 c188 -96 147 -377 -61 -421
-136 -28 -267 79 -267 218 0 173 176 281 328 203z m-3988 -765 c112 -167 206
-308 208 -315 3 -8 -59 -11 -240 -9 l-243 3 -102 245 c-56 135 -103 251 -103
258 0 7 13 12 35 12 49 0 138 36 188 75 23 18 44 34 47 34 3 0 97 -136 210
-303z m3652 273 c51 -41 143 -78 191 -79 23 0 37 -5 37 -12 0 -7 -47 -123
-103 -258 l-102 -245 -243 -3 c-181 -2 -243 1 -240 9 5 14 411 618 417 619 2
0 21 -14 43 -31z m-3238 -768 c22 -20 26 -33 26 -78 l0 -53 -425 0 -425 0 0
48 c0 57 19 88 63 101 18 6 184 9 384 8 l351 -2 26 -24z m3328 19 c49 -14 68
-43 68 -102 l0 -48 -425 0 -425 0 0 53 c0 57 21 89 65 100 41 10 680 7 717 -3z
m270 -336 c26 -19 54 -53 71 -84 l27 -52 0 -542 c0 -350 -4 -554 -11 -579 -13
-49 -73 -115 -124 -138 -38 -18 -134 -19 -2273 -19 -2466 0 -2269 -5 -2341 63
-73 69 -71 48 -71 663 l0 550 25 51 c25 50 71 94 117 113 14 5 915 8 2280 7
l2256 -2 44 -31z"/>
<path d="M1580 876 l0 -376 75 0 75 0 0 130 0 130 74 0 c59 0 78 -4 100 -21
41 -32 58 -75 63 -161 l6 -78 68 0 69 0 0 94 c0 88 -2 99 -33 158 l-34 64 32
37 c79 91 73 238 -15 325 -63 63 -76 67 -287 70 l-193 4 0 -376z m374 198 c38
-38 36 -95 -3 -135 -28 -28 -33 -29 -125 -29 l-96 0 0 95 0 95 99 0 c93 0 100
-1 125 -26z"/>
<path d="M2290 876 l0 -376 70 0 70 0 0 129 0 128 113 5 c129 5 170 21 229 86
46 51 61 99 56 177 -5 82 -44 147 -112 190 l-49 30 -189 3 -188 4 0 -376z
m357 209 c29 -20 46 -75 34 -107 -20 -53 -55 -68 -157 -68 l-94 0 0 95 0 95
98 0 c71 0 103 -4 119 -15z"/>
<path d="M3174 1238 c-54 -18 -126 -80 -153 -133 -26 -49 -26 -52 -29 -327
l-3 -278 71 0 70 0 0 70 0 70 130 0 130 0 0 -70 0 -70 76 0 76 0 -4 268 c-3
256 -4 269 -27 320 -56 124 -208 192 -337 150z m161 -160 c43 -33 55 -76 55
-188 l0 -101 -127 3 -128 3 0 110 c1 120 12 152 64 180 40 22 104 19 136 -7z"/>
<path d="M380 875 l0 -75 70 0 70 0 0 75 0 75 -70 0 -70 0 0 -75z"/>
<path d="M780 875 l0 -76 73 3 72 3 3 73 3 72 -76 0 -75 0 0 -75z"/>
<path d="M1180 875 l0 -75 75 0 75 0 0 75 0 75 -75 0 -75 0 0 -75z"/>
<path d="M3790 875 l0 -75 75 0 75 0 0 75 0 75 -75 0 -75 0 0 -75z"/>
<path d="M4192 878 l3 -73 73 -3 72 -3 0 76 0 75 -75 0 -76 0 3 -72z"/>
<path d="M4600 875 l0 -75 70 0 70 0 0 75 0 75 -70 0 -70 0 0 -75z"/>
</g>
</svg>
