<?xml version="1.0" standalone="no"?>
<!DOCTYPE svg PUBLIC "-//W3C//DTD SVG 20010904//EN"
 "http://www.w3.org/TR/2001/REC-SVG-20010904/DTD/svg10.dtd">
<svg version="1.0" xmlns="http://www.w3.org/2000/svg"
 width="700.000000pt" height="348.000000pt" viewBox="0 0 700.000000 348.000000"
 preserveAspectRatio="xMidYMid meet">

<g transform="translate(0.000000,348.000000) scale(0.100000,-0.100000)"
fill="#000000" stroke="none">
<path d="M1280 2954 c-196 -24 -363 -100 -497 -227 -214 -202 -282 -470 -188
-739 47 -134 88 -195 310 -463 77 -93 169 -205 203 -248 71 -86 102 -107 162
-107 51 0 88 19 128 64 37 42 49 94 33 144 -7 23 -80 120 -191 252 -198 236
-241 305 -260 419 -32 189 70 389 265 520 40 27 102 58 137 70 256 84 560 26
729 -139 l56 -55 -18 42 c-89 207 -302 381 -543 443 -77 19 -255 33 -326 24z"/>
<path d="M2822 2675 c-152 -34 -292 -134 -345 -247 -72 -152 -52 -338 48 -456
76 -89 191 -139 472 -208 329 -81 413 -140 413 -289 0 -140 -103 -217 -311
-232 -144 -10 -277 24 -357 92 -41 34 -80 110 -89 170 l-6 45 -124 0 -125 0 7
-52 c30 -243 168 -401 405 -465 50 -14 103 -18 230 -18 142 0 176 4 245 23
265 77 393 242 383 496 -3 84 -8 111 -31 161 -69 148 -180 211 -535 299 -201
51 -249 66 -309 102 -146 85 -126 272 35 336 48 19 76 22 177 22 131 0 188
-15 257 -68 40 -30 83 -104 93 -158 l7 -38 124 0 124 0 -6 43 c-34 240 -144
373 -361 433 -81 23 -337 28 -421 9z"/>
<path d="M4220 2675 c-234 -47 -379 -183 -425 -402 -26 -121 -34 -113 109
-113 l123 0 6 50 c8 66 52 146 100 181 69 50 128 64 272 64 115 0 136 -3 182
-24 63 -28 118 -85 132 -138 16 -55 13 -149 -4 -183 -34 -66 -91 -88 -341
-130 -305 -51 -440 -99 -530 -189 -115 -113 -155 -328 -94 -506 59 -173 203
-262 435 -272 201 -9 362 48 492 172 37 36 69 65 70 65 2 0 3 -20 3 -44 0 -67
44 -144 100 -174 40 -21 55 -23 130 -20 54 3 97 11 118 21 l32 18 0 99 0 100
-53 -6 c-50 -6 -55 -5 -75 21 -22 28 -22 30 -22 519 0 295 -4 517 -11 556 -30
186 -139 292 -342 334 -93 19 -313 20 -407 1z m508 -977 l-3 -173 -34 -63
c-42 -77 -105 -135 -187 -173 -157 -72 -364 -61 -452 24 -45 43 -60 75 -68
140 -8 69 16 155 57 202 63 71 145 98 439 145 81 13 155 31 185 45 28 13 54
24 58 24 5 1 7 -77 5 -171z"/>
<path d="M5524 2671 c-91 -25 -134 -43 -187 -80 -68 -46 -115 -101 -150 -171
-31 -62 -32 -70 -32 -185 0 -132 13 -177 75 -255 72 -91 195 -147 475 -215
209 -52 267 -72 331 -116 137 -94 112 -300 -44 -367 -71 -31 -174 -46 -271
-39 -205 14 -322 96 -353 249 l-12 58 -122 0 -122 0 5 -42 c29 -252 161 -407
403 -475 101 -28 368 -25 473 5 146 42 251 111 316 207 86 127 102 325 36 461
-35 71 -120 148 -210 190 -43 20 -172 60 -304 94 -243 62 -322 92 -372 142
-38 39 -49 66 -49 126 0 126 117 202 310 202 186 0 325 -91 346 -225 l6 -45
125 0 124 0 -6 58 c-26 211 -139 349 -340 412 -102 32 -350 38 -451 11z"/>
<path d="M1395 2301 c-78 -35 -125 -121 -105 -191 6 -22 83 -123 204 -267 199
-240 233 -293 257 -403 56 -259 -177 -562 -481 -626 -92 -19 -286 -14 -375 10
-99 27 -203 84 -267 146 -76 74 -63 21 27 -105 122 -171 312 -291 530 -332
110 -21 312 -13 415 17 392 112 638 473 566 830 -38 186 -89 269 -393 637
-184 221 -233 275 -264 287 -50 20 -65 20 -114 -3z"/>
<path d="M2246 1114 c-47 -48 -32 -124 29 -150 97 -40 179 74 106 147 -40 39
-97 41 -135 3z m119 -9 c48 -48 15 -135 -51 -135 -69 0 -102 97 -48 139 35 28
69 26 99 -4z"/>
<path d="M2281 1043 c1 -32 4 -46 6 -30 2 15 10 27 16 27 7 0 20 -12 29 -27
12 -20 18 -23 18 -11 0 9 -5 20 -11 23 -7 5 -5 13 7 26 24 27 11 49 -31 49
l-35 0 1 -57z m55 36 c7 -12 -15 -31 -31 -26 -5 2 -11 11 -13 20 -4 19 32 24
44 6z"/>
<path d="M6295 1115 c-27 -26 -34 -80 -14 -117 14 -26 67 -48 102 -41 36 7 77
57 77 95 0 75 -111 118 -165 63z m128 -16 c58 -71 -44 -171 -111 -109 -15 15
-22 33 -22 60 0 73 86 105 133 49z"/>
<path d="M6331 1043 c1 -32 4 -46 6 -30 2 15 10 27 17 27 7 0 19 -12 26 -27 8
-18 14 -23 17 -15 3 8 0 19 -6 25 -8 8 -7 15 4 27 24 26 8 50 -31 50 l-34 0 1
-57z m55 36 c7 -12 -15 -31 -31 -26 -5 2 -11 11 -13 20 -4 19 32 24 44 6z"/>
</g>
</svg>
