<?xml version="1.0" encoding="UTF-8"?>
<svg version="1.1" xmlns="http://www.w3.org/2000/svg" width="900" height="900">
<path d="M0 0 C297 0 594 0 900 0 C900 297 900 594 900 900 C603 900 306 900 0 900 C0 603 0 306 0 0 Z " fill="#FEFEFE" transform="translate(0,0)"/>
<path d="M0 0 C1.10214844 0.02320313 1.10214844 0.02320313 2.2265625 0.046875 C4.36323894 0.24888805 6.31127515 0.67103647 8.375 1.25 C8.375 1.91 8.375 2.57 8.375 3.25 C9.2103125 3.311875 9.2103125 3.311875 10.0625 3.375 C13.60722364 4.71624678 15.16184295 7.25924722 17.375 10.25 C18.42289914 13.39369743 18.57516213 15.76074101 18.625 19.0625 C18.65078125 20.07957031 18.6765625 21.09664062 18.703125 22.14453125 C18.07215184 28.11624151 14.99707149 32.00260656 10.82763672 36.12207031 C9.45138626 37.49313934 9.45138626 37.49313934 8.04733276 38.89190674 C7.04986966 39.87073311 6.05231918 40.84947044 5.0546875 41.828125 C4.02931144 42.84535634 3.00467446 43.86333318 1.98074341 44.88201904 C-0.70526961 47.55097928 -3.39974013 50.21122533 -6.09655762 52.8692627 C-10.42191923 57.13522843 -14.73446937 61.41413811 -19.04656601 65.69350433 C-20.55342024 67.18638934 -22.06401756 68.67540351 -23.57522583 70.16387939 C-24.48642181 71.06531677 -25.3976178 71.96675415 -26.33642578 72.89550781 C-27.54529953 74.08747772 -27.54529953 74.08747772 -28.77859497 75.30352783 C-30.68150964 77.12043808 -30.68150964 77.12043808 -31.625 79.25 C-31.05009827 79.49958466 -30.47519653 79.74916931 -29.88287354 80.00631714 C-27.30071996 81.42862007 -25.57668149 83.05811799 -23.49902344 85.14892578 C-22.69849548 85.9496048 -21.89796753 86.75028381 -21.07318115 87.57522583 C-20.21887512 88.43985443 -19.36456909 89.30448303 -18.484375 90.1953125 C-17.60219299 91.0803244 -16.72001099 91.9653363 -15.81109619 92.87716675 C-13.47305457 95.22450131 -11.13944126 97.57606785 -8.80786133 99.92980957 C-6.42503474 102.33313927 -4.03649652 104.73077767 -1.6484375 107.12890625 C3.03131862 111.83071467 7.70531867 116.53818664 12.375 121.25 C15.93292282 119.74021461 18.17247752 117.67362696 20.86474609 114.92382812 C21.74601166 114.02950073 22.62727722 113.13517334 23.5352478 112.21374512 C24.00156994 111.73594101 24.46789207 111.2581369 24.94834518 110.76585388 C26.41505866 109.26423327 27.88886127 107.769919 29.36489868 106.27746582 C33.55918824 102.03438215 37.74215421 97.78026793 41.91601562 93.51708984 C44.4732045 90.90619605 47.04016465 88.30524202 49.61330032 85.71006775 C50.58909058 84.72189948 51.56107454 83.72995695 52.52906418 82.73414612 C53.88554405 81.3390315 55.25575981 79.95731276 56.62646484 78.57617188 C57.40049652 77.78722534 58.1745282 76.99827881 58.97201538 76.1854248 C64.41002967 71.80551007 70.68188607 71.57193944 77.375 72.25 C82.8201873 74.03015739 86.15726393 77.638261 89.375 82.25 C90.26835208 84.93005623 90.56617439 86.66779426 90.625 89.4375 C90.65078125 90.15292969 90.6765625 90.86835938 90.703125 91.60546875 C89.49336911 101.35552517 83.78812452 106.50500776 77.01953125 113.09375 C75.99139506 114.1125461 74.96436806 115.13246265 73.93840027 116.15344238 C71.25158983 118.82127717 68.55010379 121.47374463 65.84515381 124.12316895 C63.08100796 126.8359177 60.33118382 129.56310129 57.58007812 132.2890625 C52.19220841 137.62351134 46.78873444 142.94178852 41.375 148.25 C42.8500404 151.67342162 44.76430524 153.87243888 47.40991211 156.48022461 C48.24094955 157.30465561 49.071987 158.12908661 49.9282074 158.97850037 C50.82717239 159.86086868 51.72613739 160.743237 52.65234375 161.65234375 C54.06152075 163.04994949 55.47069215 164.44756093 56.87953281 165.84550571 C59.85289273 168.79260045 62.83522476 171.73061503 65.815979 174.67022705 C68.26940001 177.09046535 70.72080815 179.51266278 73.16712952 181.94007874 C75.00104162 183.75894755 76.83946511 185.57328142 78.68284607 187.3825531 C79.93413048 188.62392784 79.93413048 188.62392784 81.21069336 189.89038086 C81.9441246 190.61333847 82.67755585 191.33629608 83.43321228 192.0811615 C87.61788847 196.75514658 88.84065819 200.22465072 88.9375 206.5 C88.98003906 207.74265625 89.02257812 208.9853125 89.06640625 210.265625 C88.01516976 220.85194251 76.89323583 229.12090825 69.7578125 236.16015625 C68.53261656 237.37974626 67.3080892 238.60000825 66.084198 239.82090759 C62.88511759 243.00861772 59.67712776 246.18720875 56.46710205 249.3638916 C53.18350283 252.61662016 49.90854234 255.87802182 46.6328125 259.13867188 C40.22189709 265.51756135 33.8015218 271.88683639 27.375 278.25 C28.87852832 281.78070445 30.91514954 284.01690652 33.64111328 286.69555664 C34.52187531 287.56648453 35.40263733 288.43741241 36.31008911 289.33473206 C36.78033634 289.79511934 37.25058357 290.25550663 37.73508072 290.72984505 C39.21057703 292.17510801 40.67923462 293.627009 42.14620972 295.08091736 C46.31672147 299.21172176 50.49991857 303.32959696 54.68603516 307.44458008 C57.24923907 309.96514608 59.80515362 312.49292078 62.35686874 315.02511406 C63.33084358 315.98850583 64.30772307 316.94897004 65.28750992 317.90645027 C66.65425028 319.24210623 68.01121563 320.58774283 69.36767578 321.93383789 C70.14329865 322.69676651 70.91892151 323.45969513 71.7180481 324.2457428 C73.375 326.25 73.375 326.25 73.375 329.25 C74.035 329.25 74.695 329.25 75.375 329.25 C77.21626411 334.77379232 77.77901279 341.32418811 75.2109375 346.67578125 C71.80046457 351.31927131 67.92785631 355.3990479 62.375 357.25 C54.92651198 357.74656587 49.69352396 356.3234714 43.8125 351.5 C40.88770485 348.86833577 38.40190537 345.99481632 35.90234375 342.96484375 C34.3535516 341.22591854 32.73508588 339.78980331 30.9375 338.3125 C27.63238839 335.58377651 24.89869438 332.55752818 22.1484375 329.27734375 C19.99743911 326.81838304 17.69359964 324.55179819 15.375 322.25 C14.32077777 321.15309332 13.2688059 320.05402071 12.21875 318.953125 C11.10429527 317.80195882 9.98971016 316.65091884 8.875 315.5 C8.31941406 314.91089844 7.76382812 314.32179688 7.19140625 313.71484375 C4.09280417 310.54333338 2.03230582 308.49329209 -2.625 308.25 C-3.285 309.095625 -3.945 309.94125 -4.625 310.8125 C-6.65030226 313.24561733 -8.77109652 315.31393853 -11.18725586 317.35668945 C-19.24437176 324.32850731 -26.67422361 331.99502483 -34.2277832 339.50268555 C-36.21021302 341.4716568 -38.19971619 343.43305281 -40.19555664 345.38842773 C-43.0832483 348.21762142 -45.95045406 351.06675267 -48.81640625 353.91796875 C-49.71516983 354.79406296 -50.61393341 355.67015717 -51.53993225 356.57279968 C-52.35505783 357.3907753 -53.17018341 358.20875092 -54.01000977 359.05151367 C-55.09633446 360.12570808 -55.09633446 360.12570808 -56.2046051 361.22160339 C-57.81682024 363.10772431 -57.81682024 363.10772431 -57.61323547 365.23080444 C-56.29043363 367.93359713 -54.57492312 369.64349031 -52.42822266 371.75561523 C-51.53704742 372.64010849 -50.64587219 373.52460175 -49.72769165 374.43589783 C-48.74815387 375.39346852 -47.76861068 376.35103369 -46.7890625 377.30859375 C-45.78797016 378.29900449 -44.78768646 379.2902332 -43.78817749 380.28224182 C-41.15529773 382.89234134 -38.51442637 385.4941834 -35.87091064 388.09350586 C-31.64557774 392.24867376 -27.42762636 396.41120733 -23.21888351 400.58317757 C-21.75038227 402.03504381 -20.27557774 403.48028097 -18.80020142 404.92515564 C-17.90272186 405.81280106 -17.00524231 406.70044647 -16.08056641 407.61499023 C-15.29082428 408.39124252 -14.50108215 409.16749481 -13.68740845 409.9672699 C-8.83677478 415.33608396 -8.0777112 419.2923843 -8.27734375 426.375 C-8.92391702 431.72194303 -11.75655727 434.59302125 -15.625 438 C-19.3886696 440.8227522 -22.12208647 442.53951594 -26.875 442.625 C-27.58140625 442.65335938 -28.2878125 442.68171875 -29.015625 442.7109375 C-38.19517775 441.08939974 -43.99527897 434.4406811 -50.25 428.0859375 C-51.24674532 427.08680391 -52.24423558 426.08841298 -53.24243164 425.09072876 C-55.3194253 423.01062485 -57.3895794 420.92403062 -59.45458984 418.83203125 C-62.10525307 416.14716856 -64.76911587 413.47588387 -67.43768311 410.80882835 C-69.49197573 408.75399326 -71.5410262 406.69399917 -73.58831787 404.6321907 C-74.56955648 403.64458143 -75.5520167 402.65818436 -76.53570557 401.67301559 C-77.90255911 400.30184462 -79.26202371 398.92331976 -80.62109375 397.54443359 C-81.39638428 396.76151947 -82.1716748 395.97860535 -82.97045898 395.17196655 C-84.625 393.25 -84.625 393.25 -84.625 391.25 C-91.1809988 396.77933444 -97.2487283 402.74255422 -103.29296875 408.8203125 C-104.30066699 409.82988176 -105.30859064 410.83922607 -106.31672668 411.84835815 C-108.94895816 414.48437409 -111.57817454 417.12337673 -114.20672607 419.76306152 C-116.87753139 422.44412004 -119.55118464 425.12233514 -122.22460938 427.80078125 C-126.9290758 432.51476765 -131.63106709 437.23120817 -136.33122253 441.94949341 C-137.9698452 443.59292321 -139.61339747 445.23144382 -141.26020813 446.8666687 C-142.93132277 448.5508845 -144.54873369 450.2892004 -146.125 452.0625 C-150.06061459 455.30299305 -154.6400471 454.81289758 -159.5078125 454.59765625 C-171.01471149 453.31430536 -178.70279561 443.30535028 -186.359375 435.4375 C-188.00070958 433.7689482 -189.64265413 432.10099624 -191.28515625 430.43359375 C-193.84769685 427.82756162 -196.40615227 425.21797502 -198.95458984 422.59814453 C-201.43241815 420.05407678 -203.92556204 417.52591451 -206.421875 415 C-207.18546326 414.20746826 -207.94905151 413.41493652 -208.73577881 412.59838867 C-209.45042297 411.88013916 -210.16506714 411.16188965 -210.90136719 410.421875 C-211.52565613 409.7834668 -212.14994507 409.14505859 -212.79315186 408.48730469 C-214.5263036 407.06078713 -214.5263036 407.06078713 -216.57711792 407.28747559 C-219.32753171 408.58019671 -220.99465237 410.29874495 -223.11474609 412.47851562 C-223.99601166 413.37614624 -224.87727722 414.27377686 -225.7852478 415.1986084 C-226.25156994 415.68053146 -226.71789207 416.16245453 -227.19834518 416.65898132 C-228.66273111 418.17100863 -230.13718711 419.67250901 -231.61489868 421.17150879 C-235.81352691 425.43426823 -239.99362325 429.71498702 -244.16601562 434.00341797 C-246.72114352 436.62815869 -249.28842573 439.24050662 -251.86330032 441.84587097 C-252.84013378 442.83944791 -253.81212872 443.83780656 -254.77906418 444.84101868 C-256.13325822 446.24578881 -257.50454833 447.634017 -258.87646484 449.02148438 C-259.65049652 449.81566772 -260.4245282 450.60985107 -261.22201538 451.42810059 C-264.04803479 453.57073732 -266.13004411 453.94524335 -269.625 454.25 C-269.625 454.91 -269.625 455.57 -269.625 456.25 C-276.06855983 457.02175717 -280.67900303 456.78392865 -286.1875 453.125 C-289.96182829 450.11630407 -292.06405398 448.20502319 -292.625 443.25 C-293.19651229 435.12556065 -293.11463318 429.28953436 -287.5491333 422.84701538 C-286.75335876 422.0729837 -285.95758423 421.29895203 -285.13769531 420.50146484 C-284.23376038 419.61389496 -283.32982544 418.72632507 -282.39849854 417.81185913 C-281.91832527 417.3472868 -281.43815201 416.88271446 -280.94342804 416.40406418 C-279.43168303 414.94017428 -277.93065103 413.4660319 -276.43206787 411.98867798 C-272.17293986 407.79353694 -267.89541914 403.61737307 -263.61083984 399.44824219 C-260.98392729 396.89069308 -258.36920826 394.32118524 -255.7614975 391.74406815 C-254.76624244 390.76560735 -253.76620177 389.79199004 -252.76139069 388.82334518 C-251.3613955 387.47357184 -249.9776226 386.10703288 -248.59472656 384.73974609 C-247.8021344 383.9673056 -247.00954224 383.19486511 -246.19293213 382.39901733 C-244.42475732 380.42179094 -244.42475732 380.42179094 -244.63456726 378.23300171 C-245.90779531 375.68379944 -247.4756025 374.04022871 -249.50219727 372.03222656 C-250.73336021 370.8014035 -250.73336021 370.8014035 -251.98939514 369.54571533 C-252.88105881 368.66953552 -253.77272247 367.79335571 -254.69140625 366.890625 C-256.05434059 365.53405792 -256.05434059 365.53405792 -257.44480896 364.15008545 C-259.85653764 361.74979247 -262.27714002 359.35864631 -264.69970703 356.96929932 C-267.17176832 354.52796639 -269.63532305 352.07808261 -272.09960938 349.62890625 C-276.93311895 344.82753826 -281.77605773 340.03578051 -286.625 335.25 C-290.18402531 336.7619976 -292.44203129 338.83533288 -295.14648438 341.57617188 C-296.03420532 342.47049927 -296.92192627 343.36482666 -297.83654785 344.28625488 C-298.30611404 344.76405899 -298.77568024 345.2418631 -299.25947571 345.73414612 C-300.73476932 347.23504738 -302.21629174 348.72954082 -303.69958496 350.22253418 C-306.84702888 353.39279762 -309.98656861 356.57081755 -313.125 359.75 C-316.76270899 363.43494294 -320.40360347 367.11661497 -324.05305481 370.78993225 C-325.51067787 372.26049524 -326.96213288 373.73696438 -328.41345215 375.21374512 C-329.74503357 376.55523621 -329.74503357 376.55523621 -331.10351562 377.92382812 C-331.88198853 378.71277466 -332.66046143 379.50172119 -333.46252441 380.3145752 C-337.81308459 384.20834497 -340.95231913 384.50407045 -346.75 384.4375 C-347.99007812 384.43105469 -349.23015625 384.42460938 -350.5078125 384.41796875 C-353.625 384.25 -353.625 384.25 -355.625 383.25 C-355.625 382.59 -355.625 381.93 -355.625 381.25 C-356.49125 380.9096875 -356.49125 380.9096875 -357.375 380.5625 C-361.18583774 378.33951132 -363.24429664 375.39211008 -364.625 371.25 C-364.828125 369.015625 -364.828125 369.015625 -364.875 366.5 C-364.90078125 365.68015625 -364.9265625 364.8603125 -364.953125 364.015625 C-363.86106247 354.811098 -357.59537299 349.69527879 -351.26953125 343.50390625 C-350.24161365 342.48345913 -349.21458314 341.46211773 -348.18840027 340.43992615 C-345.4994221 337.76614074 -342.79864747 335.10459265 -340.09515381 332.44549561 C-337.33283796 329.72427021 -334.58196437 326.99153057 -331.83007812 324.25976562 C-326.43945831 318.91190432 -321.03631197 313.57693138 -315.625 308.25 C-317.05871948 304.96562803 -318.81663859 302.8280161 -321.36865234 300.3269043 C-322.13639984 299.56899094 -322.90414734 298.81107758 -323.69515991 298.03019714 C-324.52536652 297.21972427 -325.35557312 296.4092514 -326.2109375 295.57421875 C-327.96366316 293.8419198 -329.71626341 292.10949394 -331.46875 290.37695312 C-334.23346473 287.65568251 -337.00058989 284.9369216 -339.77050781 282.22094727 C-342.44465772 279.59521445 -345.10942664 276.96023214 -347.7734375 274.32421875 C-348.59959564 273.51981857 -349.42575378 272.7154184 -350.27694702 271.88664246 C-356.74953314 265.46993072 -361.68316109 259.55335723 -361.9375 250.0625 C-361.97488281 249.16144531 -362.01226562 248.26039063 -362.05078125 247.33203125 C-361.06709081 240.21155644 -356.95985279 234.99150827 -351.93847656 230.109375 C-351.38193893 229.55225327 -350.82540131 228.99513153 -350.2519989 228.42112732 C-348.4325369 226.60442477 -346.5993826 224.80226155 -344.765625 223 C-343.49251362 221.7343586 -342.22028966 220.46782399 -340.94891357 219.20043945 C-337.6171667 215.88388911 -334.27358057 212.57953333 -330.92730713 209.27764893 C-327.50804791 205.89947167 -324.10023034 202.50979477 -320.69140625 199.12109375 C-314.01369602 192.48614876 -307.32341035 185.86404171 -300.625 179.25 C-302.12548899 175.72713856 -304.14982727 173.50349211 -306.87524414 170.83618164 C-307.75277847 169.97170914 -308.63031281 169.10723663 -309.53443909 168.21656799 C-310.00306429 167.75942476 -310.47168949 167.30228153 -310.95451546 166.83128548 C-312.42645268 165.39424619 -313.89108871 163.95012713 -315.35386658 162.50376892 C-319.51241092 158.39403399 -323.68203758 154.2956809 -327.8605957 150.20629883 C-330.41957117 147.70094284 -332.96867539 145.18588671 -335.5119915 142.66464043 C-336.48145953 141.70757101 -337.45470407 140.75431118 -338.43177986 139.80500984 C-339.79829739 138.47700444 -341.15153473 137.1353751 -342.50415039 135.79321289 C-343.66425377 134.6554818 -343.66425377 134.6554818 -344.84779358 133.49476624 C-346.80402761 131.02387256 -347.28584551 129.34999025 -347.625 126.25 C-348.285 126.25 -348.945 126.25 -349.625 126.25 C-349.625 121.63 -349.625 117.01 -349.625 112.25 C-348.965 112.25 -348.305 112.25 -347.625 112.25 C-347.52574219 111.66734375 -347.42648437 111.0846875 -347.32421875 110.484375 C-345.92403516 106.01004532 -342.64763195 103.44254238 -338.625 101.25 C-333.41585396 100.22753115 -327.63457473 99.44664665 -322.88525391 102.29246521 C-316.89870177 106.78361628 -311.69246502 111.92690243 -306.4375 117.2421875 C-305.48530442 118.19812232 -304.53265958 119.15360982 -303.57958984 120.1086731 C-301.09608543 122.5997423 -298.61865151 125.09676155 -296.14251709 127.59515381 C-293.60522509 130.15306009 -291.06212228 132.70517539 -288.51953125 135.2578125 C-283.54904878 140.2496183 -278.58496882 145.24774564 -273.625 150.25 C-269.73104884 148.66600411 -267.11347765 146.00803057 -264.21386719 143.06591797 C-263.68659027 142.53893311 -263.15931335 142.01194824 -262.61605835 141.46899414 C-260.87987928 139.73142524 -259.150886 137.98688686 -257.421875 136.2421875 C-256.21733563 135.03391678 -255.01235303 133.82608778 -253.8069458 132.61868286 C-250.63951894 129.44362923 -247.47814487 126.26261478 -244.31799316 123.08032227 C-241.09062911 119.83247924 -237.85757772 116.59030867 -234.625 113.34765625 C-228.28608697 106.98731018 -221.95355376 100.62065247 -215.625 94.25 C-217.15236923 90.1384089 -218.74828778 87.79449167 -221.9375 84.75 C-222.74703125 83.96882813 -223.5565625 83.18765625 -224.390625 82.3828125 C-225.12796875 81.67898438 -225.8653125 80.97515625 -226.625 80.25 C-227.470625 79.38375 -228.31625 78.5175 -229.1875 77.625 C-231.23568433 75.62933322 -233.32426777 73.78874444 -235.5 71.9375 C-238.98823999 68.92701145 -241.92844671 65.67312552 -244.90234375 62.1640625 C-247.08783277 59.73574137 -249.48803983 57.69349826 -252 55.61328125 C-258.22228903 50.39313973 -263.99683344 45.02913232 -264.8984375 36.734375 C-265.15393635 29.85555968 -264.14422741 25.5202738 -259.625 20.25 C-255.50300779 16.3778255 -251.32368753 16.07191921 -245.8125 15.9375 C-244.81605469 15.90011719 -243.81960938 15.86273438 -242.79296875 15.82421875 C-233.94067372 17.01398467 -228.34614626 24.21078553 -222.45703125 30.30078125 C-221.49116478 31.28496979 -220.52424248 32.26812315 -219.55632019 33.25028992 C-215.46950917 37.40097321 -211.40185918 41.57021153 -207.34106445 45.74633789 C-204.84719947 48.30956191 -202.34138012 50.86059122 -199.82794762 53.40462303 C-198.87460206 54.37475659 -197.92610019 55.34967459 -196.982584 56.3293705 C-195.66884519 57.69332824 -194.33833618 59.04107363 -193.00708008 60.38793945 C-192.25542068 61.15975052 -191.50376129 61.93156158 -190.72932434 62.72676086 C-188.79706895 64.42322736 -188.79706895 64.42322736 -186.6958313 64.31877136 C-183.65122112 62.74742551 -181.46473981 60.44701797 -179.10961914 58.01171875 C-178.57086655 57.46697906 -178.03211395 56.92223938 -177.47703552 56.36099243 C-176.30934797 55.1785527 -175.14510782 53.99270087 -173.9839344 52.80386353 C-172.14557598 50.92257928 -170.29758752 49.05126733 -168.44664001 47.18237305 C-163.8515079 42.53913749 -159.27086888 37.8817116 -154.69464111 33.21984863 C-150.82740716 29.28024886 -146.95251805 25.34853815 -143.06582451 21.4281311 C-141.24488241 19.58499703 -139.43595914 17.73058652 -137.62696838 15.87573242 C-136.50853182 14.74596022 -135.38949908 13.61677779 -134.26977539 12.48828125 C-133.77039459 11.96980621 -133.27101379 11.45133118 -132.75650024 10.91714478 C-129.84712339 8.01493334 -127.76351359 6.58268333 -123.625 6.25 C-123.625 5.59 -123.625 4.93 -123.625 4.25 C-120.70424603 3.41169704 -118.09835217 3.11472639 -115.0625 3.125 C-114.29808594 3.12242187 -113.53367187 3.11984375 -112.74609375 3.1171875 C-110.625 3.25 -110.625 3.25 -107.625 4.25 C-107.625 4.91 -107.625 5.57 -107.625 6.25 C-106.89796875 6.3325 -106.1709375 6.415 -105.421875 6.5 C-101.99422894 7.41914531 -100.45018781 8.82629382 -97.875 11.25 C-97.01003906 12.05953125 -96.14507812 12.8690625 -95.25390625 13.703125 C-91.3289331 17.50562499 -87.45700151 21.35401331 -83.625 25.25 C-81.95911981 26.91745277 -80.29235199 28.58401894 -78.625 30.25 C-71.95833333 36.91666667 -65.29166667 43.58333333 -58.625 50.25 C-52.79320398 45.42123963 -47.48882247 40.19784106 -42.18359375 34.80078125 C-40.36552488 32.96520701 -38.54715654 31.12992935 -36.72851562 29.29492188 C-33.88513186 26.42176094 -31.04486219 23.54559023 -28.21020508 20.66381836 C-25.45945146 17.86806527 -22.69659057 15.08443629 -19.93359375 12.30078125 C-19.08969589 11.43826248 -18.24579803 10.57574371 -17.37632751 9.68708801 C-7.46824342 -0.26389553 -7.46824342 -0.26389553 0 0 Z " fill="#31557F" transform="translate(585.625,214.75)"/>
<path d="M0 0 C3.84552668 2.8617873 6.47718125 5.88466876 8.015625 10.5 C8.11153992 12.80051036 8.14636796 15.10374195 8.1484375 17.40625 C8.14987259 18.42616028 8.14987259 18.42616028 8.15133667 19.4666748 C8.1520171 20.90909925 8.15017236 22.35152676 8.14599609 23.79394531 C8.140712 25.96426614 8.14591099 28.13437368 8.15234375 30.3046875 C8.16374892 51.20375217 8.16374892 51.20375217 6.015625 55.5 C5.76102212 57.60124061 5.53851151 59.70637269 5.328125 61.8125 C2.89437484 83.16783628 -1.45949515 106.17188067 -9.9609375 126.03125 C-11.2184998 129.06475907 -12.28192921 132.14805417 -13.359375 135.25 C-15.54402614 141.43871763 -18.02034547 147.43433892 -20.65234375 153.44140625 C-21.42596802 155.21779277 -22.17448537 157.00639265 -22.85546875 158.8203125 C-24.59617591 162.95223331 -26.74900542 166.85940247 -28.859375 170.8125 C-31.97708954 176.67324824 -35.04013902 182.5499045 -37.984375 188.5 C-38.644375 188.5 -39.304375 188.5 -39.984375 188.5 C-40.39024146 192.0513315 -40.20192907 193.21446029 -37.984375 196.125 C-37.324375 196.90875 -36.664375 197.6925 -35.984375 198.5 C-35.984375 199.49 -35.984375 200.48 -35.984375 201.5 C-35.324375 201.5 -34.664375 201.5 -33.984375 201.5 C-31.16904681 206.54140164 -29.4655241 210.72621075 -28.984375 216.5 C-28.324375 216.5 -27.664375 216.5 -26.984375 216.5 C-23.86688559 225.96380713 -22.57777015 234.8958658 -22.546875 244.875 C-22.53720703 245.87208984 -22.52753906 246.86917969 -22.51757812 247.89648438 C-22.58338018 253.72190164 -23.3512925 258.71819872 -25.24584961 264.23291016 C-26.02844371 266.63528002 -26.53099852 269.01642832 -26.984375 271.5 C-27.644375 271.5 -28.304375 271.5 -28.984375 271.5 C-29.09523438 272.38042969 -29.20609375 273.26085937 -29.3203125 274.16796875 C-31.10014007 283.09851532 -37.27134462 290.64436355 -42.984375 297.5 C-43.48195313 298.15484375 -43.97953125 298.8096875 -44.4921875 299.484375 C-49.86604168 306.23544809 -56.93985319 310.66922561 -63.984375 315.5 C-64.68820312 316.05171875 -65.39203125 316.6034375 -66.1171875 317.171875 C-79.5581979 326.73242633 -101.02011305 327.96832801 -116.8125 326.1796875 C-119.24977219 325.73581343 -121.59401694 325.15125433 -123.984375 324.5 C-125.21285156 324.19707031 -126.44132813 323.89414062 -127.70703125 323.58203125 C-133.79303692 322.04964219 -139.42250013 320.49419951 -144.984375 317.5 C-144.984375 316.84 -144.984375 316.18 -144.984375 315.5 C-146.3146875 315.12875 -146.3146875 315.12875 -147.671875 314.75 C-151.10894673 313.4529918 -153.16358263 311.80117272 -155.984375 309.5 C-158.16652068 308.72166466 -158.16652068 308.72166466 -159.984375 308.5 C-159.984375 309.16 -159.984375 309.82 -159.984375 310.5 C-165.984375 313.5 -165.984375 313.5 -167.87841797 314.44482422 C-171.27685109 316.14109732 -174.67021642 317.84633228 -178.0546875 319.5703125 C-185.08225222 323.13862125 -192.10260322 326.52512983 -199.421875 329.46875 C-201.65649763 330.36804935 -203.85073877 331.3242387 -206.046875 332.3125 C-208.984375 333.5 -208.984375 333.5 -211.984375 333.5 C-211.984375 334.16 -211.984375 334.82 -211.984375 335.5 C-214.06546185 336.17364661 -216.1493421 336.83866798 -218.234375 337.5 C-219.39453125 337.87125 -220.5546875 338.2425 -221.75 338.625 C-224.984375 339.5 -224.984375 339.5 -228.984375 339.5 C-228.984375 340.16 -228.984375 340.82 -228.984375 341.5 C-237.41294643 343.78571429 -237.41294643 343.78571429 -241.984375 343.5 C-241.984375 344.16 -241.984375 344.82 -241.984375 345.5 C-249.63817061 347.61604937 -257.29073601 349.14924863 -265.13623047 350.3215332 C-269.44040432 350.98831539 -273.58651778 351.89738608 -277.796875 353.01953125 C-283.85135429 354.56663824 -289.75942471 355.26412348 -295.984375 355.6875 C-297.08144775 355.76718018 -298.17852051 355.84686035 -299.30883789 355.92895508 C-333.04937442 358.14500019 -333.04937442 358.14500019 -340.984375 355.5 C-340.984375 354.84 -340.984375 354.18 -340.984375 353.5 C-341.70625 353.314375 -342.428125 353.12875 -343.171875 352.9375 C-347.8462321 350.54838415 -350.34831417 346.40818248 -351.984375 341.5 C-352.58570331 335.53297291 -352.09721773 330.7529221 -348.984375 325.5 C-344.57138526 320.81000441 -340.1153048 316.98098747 -333.51855469 316.21289062 C-332.65649414 316.19419922 -331.79443359 316.17550781 -330.90625 316.15625 C-329.92293701 316.12813232 -328.93962402 316.10001465 -327.92651367 316.07104492 C-326.87310791 316.0476001 -325.81970215 316.02415527 -324.734375 316 C-297.84798563 315.12901861 -273.35077423 311.95380539 -247.59375 304.16796875 C-242.89760953 302.75168498 -238.17957938 301.50101326 -233.421875 300.3125 C-228.24494576 298.9580041 -224.49987365 297.3115369 -219.984375 294.5 C-216.96775131 293.16020299 -213.92202049 291.91221482 -210.86328125 290.671875 C-208.52542676 289.72023817 -206.22293305 288.7232204 -203.921875 287.6875 C-200.984375 286.5 -200.984375 286.5 -197.984375 286.5 C-197.984375 285.84 -197.984375 285.18 -197.984375 284.5 C-197.32050781 284.17386719 -196.65664063 283.84773438 -195.97265625 283.51171875 C-194.15697661 282.61315613 -192.34721002 281.70256469 -190.54296875 280.78125 C-188.68090448 279.84879644 -186.77939095 278.9939067 -184.859375 278.1875 C-182.80087633 276.69475109 -182.80087633 276.69475109 -182.69140625 274.5390625 C-182.63596567 272.04484448 -182.63596567 272.04484448 -182.984375 268.5 C-183.644375 268.5 -184.304375 268.5 -184.984375 268.5 C-187.81876375 260.83402223 -188.45946698 253.88485684 -188.359375 245.75 C-188.35067383 244.03997803 -188.35067383 244.03997803 -188.34179688 242.29541016 C-188.21479286 234.03897293 -187.40725492 226.43204737 -184.984375 218.5 C-184.324375 218.5 -183.664375 218.5 -182.984375 218.5 C-182.9328125 217.92894531 -182.88125 217.35789062 -182.828125 216.76953125 C-180.37622273 199.24400252 -165.12041274 185.15699047 -151.7734375 174.78125 C-134.11349158 162.28540379 -111.07658128 158.89779281 -89.984375 162.25 C-85.6956065 163.15736503 -81.87953391 164.65473437 -77.95703125 166.59765625 C-75.98067191 167.50169389 -74.10380241 168.04007951 -71.984375 168.5 C-71.695625 167.778125 -71.406875 167.05625 -71.109375 166.3125 C-70.06770833 163.70833333 -69.02604167 161.10416667 -67.984375 158.5 C-67.324375 158.5 -66.664375 158.5 -65.984375 158.5 C-65.82195312 157.45005859 -65.82195312 157.45005859 -65.65625 156.37890625 C-64.89719969 153.12646392 -63.68127619 150.44690531 -62.234375 147.4375 C-56.10669618 134.43450691 -51.06769699 121.24145071 -46.91796875 107.484375 C-46.18141187 105.12985844 -45.39027516 102.85418256 -44.484375 100.5625 C-33.4598472 71.77954365 -32.7792293 40.90156133 -31.984375 10.5 C-31.324375 10.5 -30.664375 10.5 -29.984375 10.5 C-29.96375 9.819375 -29.943125 9.13875 -29.921875 8.4375 C-28.5003834 3.983493 -25.58067247 1.38895118 -21.984375 -1.5 C-14.40001696 -5.29217902 -7.04356581 -4.33450204 0 0 Z " fill="#32567F" transform="translate(801.984375,453.5)"/>
<path d="M0 0 C1.4292016 -0.01660348 2.85831868 -0.04395186 4.28710938 -0.08203125 C12.87070961 -0.30832974 20.2031576 -0.30991583 27.14355469 5.35009766 C31.38172172 9.44132094 33.27997763 13.13438246 33.45605469 19.03759766 C33.36601972 25.2229999 31.70706183 29.62005177 27.45996094 34.14306641 C22.07133478 39.02180105 17.8453252 39.47423197 10.67089844 39.67431641 C-5.98478505 40.26681643 -22.35577347 41.31511341 -38.79394531 44.16259766 C-39.50003937 44.28130219 -40.20613342 44.40000671 -40.93362427 44.52230835 C-49.79428482 46.03450942 -58.13383655 48.25601165 -66.55395508 51.3684082 C-69.84625568 52.34706871 -72.44536804 52.54091583 -75.85644531 52.35009766 C-75.85644531 53.01009766 -75.85644531 53.67009766 -75.85644531 54.35009766 C-81.62903448 56.33474001 -87.36412516 58.26450774 -93.29394531 59.72509766 C-99.19029551 61.29801846 -104.50741071 63.78570485 -109.98339844 66.44824219 C-112.05207603 67.44429211 -114.1324048 68.41261077 -116.21582031 69.37744141 C-117.72105145 70.07661107 -119.22626001 70.77582933 -120.73144531 71.47509766 C-121.43285645 71.79953857 -122.13426758 72.12397949 -122.85693359 72.45825195 C-127.32695081 74.55194554 -131.60000569 76.8495783 -135.85644531 79.35009766 C-135.24836473 86.03898401 -133.88001903 92.30295022 -130.85644531 98.35009766 C-130.77100636 100.45538699 -130.74929807 102.56340923 -130.75878906 104.67041016 C-130.76201172 105.92724609 -130.76523437 107.18408203 -130.76855469 108.47900391 C-130.77693359 109.79771484 -130.7853125 111.11642578 -130.79394531 112.47509766 C-130.79896042 113.81493977 -130.80352331 115.15478366 -130.80761719 116.49462891 C-130.81943446 119.77982972 -130.83590914 123.06494163 -130.85644531 126.35009766 C-131.51644531 126.35009766 -132.17644531 126.35009766 -132.85644531 126.35009766 C-132.77394531 127.25759766 -132.69144531 128.16509766 -132.60644531 129.10009766 C-132.70034713 144.6564994 -144.87822597 161.28133328 -155.23144531 172.03759766 C-157.85644531 174.35009766 -157.85644531 174.35009766 -159.85644531 174.35009766 C-159.85644531 175.01009766 -159.85644531 175.67009766 -159.85644531 176.35009766 C-165.84986774 181.41262682 -172.74122258 185.12894256 -179.85644531 188.35009766 C-180.94699219 188.84638672 -182.03753906 189.34267578 -183.16113281 189.85400391 C-201.89074916 197.43692469 -221.59983906 196.78439889 -240.85644531 191.35009766 C-244.47363281 189.71337891 -244.47363281 189.71337891 -246.85644531 188.35009766 C-247.18644531 190.00009766 -247.51644531 191.65009766 -247.85644531 193.35009766 C-248.51644531 193.35009766 -249.17644531 193.35009766 -249.85644531 193.35009766 C-250.12457031 194.19572266 -250.39269531 195.04134766 -250.66894531 195.91259766 C-251.90430482 199.48863833 -253.33343331 202.88870674 -254.85644531 206.35009766 C-255.51644531 206.35009766 -256.17644531 206.35009766 -256.85644531 206.35009766 C-256.97890625 207.06552734 -257.10136719 207.78095703 -257.22753906 208.51806641 C-257.86779906 211.40122479 -258.79196087 213.93602239 -259.91894531 216.66259766 C-260.28117187 217.54560547 -260.64339844 218.42861328 -261.01660156 219.33837891 C-261.29375 220.00224609 -261.57089844 220.66611328 -261.85644531 221.35009766 C-262.51644531 221.35009766 -263.17644531 221.35009766 -263.85644531 221.35009766 C-263.95957031 222.15447266 -264.06269531 222.95884766 -264.16894531 223.78759766 C-265.22508612 229.26032732 -266.8409531 234.40035261 -269.41894531 239.35009766 C-271.28036029 243.23478979 -272.060499 247.13626425 -272.85644531 251.35009766 C-273.51644531 251.35009766 -274.17644531 251.35009766 -274.85644531 251.35009766 C-274.95957031 252.58759766 -275.06269531 253.82509766 -275.16894531 255.10009766 C-275.80812637 260.99372297 -277.31922528 266.6362798 -278.85644531 272.35009766 C-279.51644531 272.35009766 -280.17644531 272.35009766 -280.85644531 272.35009766 C-280.81519531 273.34009766 -280.77394531 274.33009766 -280.73144531 275.35009766 C-280.72387671 278.82289038 -281.47497602 281.85060146 -282.35079956 285.21090698 C-283.14635292 288.57658408 -283.5262031 291.98350415 -283.89160156 295.41650391 C-283.97473099 296.16486511 -284.05786041 296.91322632 -284.14350891 297.68426514 C-284.40815009 300.0930838 -284.66361622 302.5027759 -284.91894531 304.91259766 C-285.0090387 305.73424408 -285.09913208 306.5558905 -285.19195557 307.4024353 C-286.39356271 318.37395058 -287.40125511 329.29165984 -287.17700195 340.34643555 C-287.2179076 346.97380025 -289.44953225 350.50364242 -293.85644531 355.35009766 C-294.55769531 356.15447266 -295.25894531 356.95884766 -295.98144531 357.78759766 C-299.41413707 360.64817412 -303.08122974 360.48690096 -307.41894531 360.47509766 C-308.36898437 360.47767578 -309.31902344 360.48025391 -310.29785156 360.48291016 C-312.85644531 360.35009766 -312.85644531 360.35009766 -315.85644531 359.35009766 C-315.85644531 358.69009766 -315.85644531 358.03009766 -315.85644531 357.35009766 C-316.57832031 357.16447266 -317.30019531 356.97884766 -318.04394531 356.78759766 C-322.71830241 354.3984818 -325.22038449 350.25828014 -326.85644531 345.35009766 C-327.94590187 329.5266803 -327.00319709 313.61976953 -325.04394531 297.91259766 C-324.9611734 297.24025085 -324.87840149 296.56790405 -324.79312134 295.87518311 C-321.53002498 269.86046716 -321.53002498 269.86046716 -317.85644531 264.35009766 C-317.49961152 262.17227872 -317.21748433 259.98179712 -316.98144531 257.78759766 C-316.26962337 252.32282292 -315.08955039 247.8557194 -312.86035156 242.84619141 C-311.72686916 240.02792193 -311.0392294 237.24632868 -310.35644531 234.28759766 C-309.29389494 229.77893796 -307.87133082 225.84831026 -305.88378906 221.67822266 C-304.71577165 219.03130866 -303.85170941 216.35894316 -302.98144531 213.60009766 C-300.82849785 206.91734872 -297.9107594 200.66234678 -294.85644531 194.35009766 C-294.19644531 194.35009766 -293.53644531 194.35009766 -292.85644531 194.35009766 C-292.80359375 193.57150391 -292.75074219 192.79291016 -292.69628906 191.99072266 C-291.50786885 186.83905922 -289.012751 182.67468762 -286.41894531 178.10009766 C-285.91556641 177.19001953 -285.4121875 176.27994141 -284.89355469 175.34228516 C-281.15376674 168.64741908 -281.15376674 168.64741908 -278.85644531 166.35009766 C-279.21902679 162.84514333 -281.0638525 160.31177274 -282.85644531 157.35009766 C-282.85644531 156.69009766 -282.85644531 156.03009766 -282.85644531 155.35009766 C-283.51644531 155.35009766 -284.17644531 155.35009766 -284.85644531 155.35009766 C-285.53052839 154.08318258 -286.19545028 152.81139017 -286.85644531 151.53759766 C-287.22769531 150.82990234 -287.59894531 150.12220703 -287.98144531 149.39306641 C-288.85644531 147.35009766 -288.85644531 147.35009766 -288.85644531 144.35009766 C-289.51644531 144.35009766 -290.17644531 144.35009766 -290.85644531 144.35009766 C-295.39892663 126.71898799 -300.27607281 104.46199451 -292.78613281 86.83056641 C-292.47933594 86.34201172 -292.17253906 85.85345703 -291.85644531 85.35009766 C-291.19644531 85.35009766 -290.53644531 85.35009766 -289.85644531 85.35009766 C-289.19644531 82.05009766 -288.53644531 78.75009766 -287.85644531 75.35009766 C-287.19644531 75.35009766 -286.53644531 75.35009766 -285.85644531 75.35009766 C-285.77394531 74.64369141 -285.69144531 73.93728516 -285.60644531 73.20947266 C-281.88770702 59.03178293 -265.18065932 47.24521247 -253.29394531 40.16259766 C-246.99110291 36.83928075 -240.79114228 34.0837719 -233.85644531 32.35009766 C-233.20635498 32.1826001 -232.55626465 32.01510254 -231.88647461 31.8425293 C-218.71291904 28.64780327 -205.1832142 29.62036115 -192.04394531 32.53759766 C-191.14393799 32.73361572 -190.24393066 32.92963379 -189.31665039 33.1315918 C-183.38468202 34.58108486 -178.82841723 36.8406705 -173.85644531 40.35009766 C-171.94017476 41.6423519 -170.02355844 42.93409373 -168.10644531 44.22509766 C-167.20410156 44.84126953 -166.30175781 45.45744141 -165.37207031 46.09228516 C-163.035727 47.56064152 -163.035727 47.56064152 -160.96850586 47.07202148 C-158.65061491 46.27974272 -156.67752496 45.26790887 -154.54785156 44.05712891 C-153.72534912 43.5947583 -152.90284668 43.1323877 -152.05541992 42.65600586 C-151.1853833 42.16318115 -150.31534668 41.67035645 -149.41894531 41.16259766 C-141.70032654 36.86083505 -133.97526609 32.85342443 -125.85644531 29.35009766 C-124.73592773 28.85268066 -124.73592773 28.85268066 -123.59277344 28.34521484 C-121.08162396 27.23058209 -118.5638376 26.13230695 -116.04394531 25.03759766 C-115.2549585 24.68737549 -114.46597168 24.33715332 -113.65307617 23.97631836 C-108.65494518 21.84103588 -104.28010736 20.77681679 -98.85644531 20.35009766 C-98.85644531 19.69009766 -98.85644531 19.03009766 -98.85644531 18.35009766 C-97.60347656 18.01236328 -96.35050781 17.67462891 -95.05957031 17.32666016 C-93.40846853 16.87635967 -91.75743016 16.42582665 -90.10644531 15.97509766 C-89.28144531 15.75337891 -88.45644531 15.53166016 -87.60644531 15.30322266 C-86.80722656 15.08408203 -86.00800781 14.86494141 -85.18457031 14.63916016 C-84.08483887 14.34066162 -84.08483887 14.34066162 -82.96289062 14.03613281 C-80.79513587 13.33013016 -78.88830869 12.37573486 -76.85644531 11.35009766 C-75.07567728 10.96274026 -73.28184037 10.63251257 -71.48144531 10.35009766 C-68.49472031 9.8789523 -65.79424943 9.32895106 -62.92675781 8.35400391 C-59.64539464 7.28108999 -56.52381681 6.75610826 -53.10644531 6.28759766 C-48.83674922 5.78715022 -48.83674922 5.78715022 -44.85644531 4.35009766 C-43.36147689 4.14310203 -41.85978611 3.98330507 -40.35644531 3.85009766 C-39.46957031 3.76759766 -38.58269531 3.68509766 -37.66894531 3.60009766 C-34.85644531 3.35009766 -34.85644531 3.35009766 -32.04394531 3.10009766 C-31.15707031 3.01759766 -30.27019531 2.93509766 -29.35644531 2.85009766 C-28.54175781 2.77791016 -27.72707031 2.70572266 -26.88769531 2.63134766 C-24.79297885 2.45182857 -24.79297885 2.45182857 -22.85644531 1.35009766 C-15.26893623 0.22178273 -7.65993684 0.06497425 0 0 Z " fill="#32567F" transform="translate(416.8564453125,89.64990234375)"/>
<path d="M0 0 C1.72505156 0.99114805 3.38077119 2.1000383 5.03125 3.2109375 C6.4853125 4.0153125 6.4853125 4.0153125 7.96875 4.8359375 C8.649375 5.2896875 9.33 5.7434375 10.03125 6.2109375 C10.03125 6.8709375 10.03125 7.5309375 10.03125 8.2109375 C12.01125 8.8709375 13.99125 9.5309375 16.03125 10.2109375 C16.03125 10.8709375 16.03125 11.5309375 16.03125 12.2109375 C16.55460938 12.44554687 17.07796875 12.68015625 17.6171875 12.921875 C20.81950673 14.63185129 23.71730122 16.71723455 26.65625 18.8359375 C27.58014526 19.49928101 27.58014526 19.49928101 28.52270508 20.17602539 C46.48143942 33.16164354 46.48143942 33.16164354 47.71875 37.7734375 C47.821875 38.9078125 47.925 40.0421875 48.03125 41.2109375 C48.11890625 41.98050781 48.2065625 42.75007813 48.296875 43.54296875 C48.70596985 49.59571295 47.59271542 52.85249827 43.734375 57.51953125 C40.3260323 60.90442205 36.58746451 63.99933034 31.671875 64.40625 C30.48851562 64.37144531 30.48851562 64.37144531 29.28125 64.3359375 C28.48203125 64.31789063 27.6828125 64.29984375 26.859375 64.28125 C26.25609375 64.25804687 25.6528125 64.23484375 25.03125 64.2109375 C25.81962928 67.73251514 26.61254779 71.25305607 27.40625 74.7734375 C27.62796875 75.76408203 27.8496875 76.75472656 28.078125 77.77539062 C30.00941314 86.81548266 30.00941314 86.81548266 33.03125 95.5234375 C34.26335611 98.83472266 34.85233874 102.14046426 35.46875 105.61328125 C35.98653107 108.29242941 35.98653107 108.29242941 37.08203125 111.078125 C38.16744445 114.66043525 38.262801 117.66211211 38.21875 121.3984375 C38.20908203 123.21408203 38.20908203 123.21408203 38.19921875 125.06640625 C38.03125 128.2109375 38.03125 128.2109375 37.03125 131.2109375 C36.37125 131.2109375 35.71125 131.2109375 35.03125 131.2109375 C34.78375 131.8296875 34.53625 132.4484375 34.28125 133.0859375 C32.80354238 135.59804046 31.59169823 135.97201094 29.03125 137.2109375 C28.70125 138.2009375 28.37125 139.1909375 28.03125 140.2109375 C26.23706055 141.01049805 26.23706055 141.01049805 23.91796875 141.59765625 C23.08201172 141.81357422 22.24605469 142.02949219 21.38476562 142.25195312 C20.50498047 142.46529297 19.62519531 142.67863281 18.71875 142.8984375 C17.41647461 143.23584961 17.41647461 143.23584961 16.08789062 143.58007812 C12.21804184 144.55719267 9.06054711 145.2109375 5.03125 145.2109375 C5.03125 145.8709375 5.03125 146.5309375 5.03125 147.2109375 C1.95007573 148.05239706 -1.13400621 148.88266812 -4.21875 149.7109375 C-5.09144531 149.94941406 -5.96414063 150.18789063 -6.86328125 150.43359375 C-7.70761719 150.65917969 -8.55195313 150.88476562 -9.421875 151.1171875 C-10.19692383 151.32666016 -10.97197266 151.53613281 -11.77050781 151.75195312 C-13.96875 152.2109375 -13.96875 152.2109375 -17.96875 152.2109375 C-17.96875 152.8709375 -17.96875 153.5309375 -17.96875 154.2109375 C-24.19847138 156.42829596 -30.3920092 158.06797887 -36.85546875 159.46484375 C-39.97282439 160.21191392 -42.9403799 161.1637441 -45.96875 162.2109375 C-47.67392592 162.76246324 -49.38213076 163.30474532 -51.09375 163.8359375 C-51.92132813 164.09632813 -52.74890625 164.35671875 -53.6015625 164.625 C-55.96875 165.2109375 -55.96875 165.2109375 -59.96875 165.2109375 C-59.96875 165.8709375 -59.96875 166.5309375 -59.96875 167.2109375 C-61.88387272 167.71681897 -63.80091922 168.21542141 -65.71875 168.7109375 C-67.31976563 169.12859375 -67.31976563 169.12859375 -68.953125 169.5546875 C-71.96875 170.2109375 -71.96875 170.2109375 -75.96875 170.2109375 C-75.17908294 173.39893624 -74.38665125 176.58624175 -73.59375 179.7734375 C-73.37203125 180.66869141 -73.1503125 181.56394531 -72.921875 182.48632812 C-71.95749953 186.35801201 -70.96968202 190.20769526 -69.8671875 194.04296875 C-68.85870417 197.59896868 -68.18147504 201.14695645 -67.53125 204.78125 C-67.03860402 207.21284874 -67.03860402 207.21284874 -66.05859375 209.40625 C-64.15618683 214.30204988 -63.129903 219.45301577 -61.91210938 224.5546875 C-60.88263184 228.78805306 -59.76781417 232.91596494 -58.33203125 237.03125 C-56.18650664 243.29184804 -56.18602955 248.69799291 -58.15625 255.0234375 C-61.08245217 260.16951717 -64.71150287 263.53686223 -69.96875 266.2109375 C-72.90625 266.57421875 -72.90625 266.57421875 -75.96875 266.5234375 C-76.979375 266.51957031 -77.99 266.51570313 -79.03125 266.51171875 C-83.90835633 266.01233419 -86.72429063 264.74209752 -90.109375 261.21484375 C-93.57482865 256.92961729 -94.62196708 252.4627058 -95.71875 247.1484375 C-96.10742635 245.40711598 -96.49800566 243.66621797 -96.890625 241.92578125 C-97.07109375 241.10505127 -97.2515625 240.28432129 -97.4375 239.4387207 C-98.10643343 236.63356557 -99.05495282 233.94483891 -99.96875 231.2109375 C-100.77372559 227.40742786 -101.47919065 223.59209201 -102.1875 219.76953125 C-102.86471165 216.68483218 -103.76737179 214.11113959 -104.96875 211.2109375 C-105.76809923 208.16941369 -106.47672427 205.11407014 -107.1875 202.05078125 C-107.84325793 199.28564065 -107.84325793 199.28564065 -109 197.2109375 C-110.26503977 194.5992425 -110.56370202 192.14132184 -110.96875 189.2734375 C-111.40221833 186.21206743 -111.82553848 183.56295361 -112.9921875 180.6953125 C-114.10375108 177.86749476 -114.37516123 175.42224879 -114.59375 172.3984375 C-114.66851562 171.42261719 -114.74328125 170.44679688 -114.8203125 169.44140625 C-114.89378906 168.33732422 -114.89378906 168.33732422 -114.96875 167.2109375 C-115.62875 167.2109375 -116.28875 167.2109375 -116.96875 167.2109375 C-118.00172468 153.59097505 -118.00172468 153.59097505 -114.28125 148.5859375 C-112.76953125 146.859375 -112.76953125 146.859375 -110.96875 145.2109375 C-110.26234375 144.53804687 -109.5559375 143.86515625 -108.828125 143.171875 C-105.04730812 140.57901971 -101.31135356 139.59154519 -96.90625 138.4609375 C-96.10380859 138.24050781 -95.30136719 138.02007812 -94.47460938 137.79296875 C-90.75969001 136.80026831 -87.86606309 136.2109375 -83.96875 136.2109375 C-83.96875 135.5509375 -83.96875 134.8909375 -83.96875 134.2109375 C-77.03875 133.2209375 -77.03875 133.2209375 -69.96875 132.2109375 C-69.96875 131.5509375 -69.96875 130.8909375 -69.96875 130.2109375 C-66.99875 129.8809375 -64.02875 129.5509375 -60.96875 129.2109375 C-60.96875 128.5509375 -60.96875 127.8909375 -60.96875 127.2109375 C-60.39020264 127.05012695 -59.81165527 126.88931641 -59.21557617 126.72363281 C-46.37251252 123.23654958 -46.37251252 123.23654958 -33.78125 118.9609375 C-27.6362908 116.61254545 -21.55644808 115.2109375 -14.96875 115.2109375 C-14.96875 114.5509375 -14.96875 113.8909375 -14.96875 113.2109375 C-13.53320975 112.70533842 -12.0952298 112.2066626 -10.65625 111.7109375 C-9.85574219 111.4325 -9.05523437 111.1540625 -8.23046875 110.8671875 C-5.96875 110.2109375 -5.96875 110.2109375 -2.96875 110.2109375 C-3.36707031 109.01339844 -3.76539063 107.81585938 -4.17578125 106.58203125 C-7.46645328 96.52650887 -10.19034351 86.64737559 -11.96875 76.2109375 C-12.57203125 76.51773438 -13.1753125 76.82453125 -13.796875 77.140625 C-20.517354 80.45251573 -26.39094601 80.81734496 -33.65625 79.5859375 C-37.96313916 77.79817219 -39.37900407 76.05631782 -41.96875 72.2109375 C-41.96875 71.2209375 -41.96875 70.2309375 -41.96875 69.2109375 C-42.62875 69.2109375 -43.28875 69.2109375 -43.96875 69.2109375 C-43.96875 64.9209375 -43.96875 60.6309375 -43.96875 56.2109375 C-43.30875 56.2109375 -42.64875 56.2109375 -41.96875 56.2109375 C-41.88625 55.2621875 -41.80375 54.3134375 -41.71875 53.3359375 C-41.02883234 48.32116283 -38.96537356 43.82638824 -36.96875 39.2109375 C-36.30875 39.2109375 -35.64875 39.2109375 -34.96875 39.2109375 C-34.63875 36.9009375 -34.30875 34.5909375 -33.96875 32.2109375 C-33.30875 32.2109375 -32.64875 32.2109375 -31.96875 32.2109375 C-31.85917969 31.57027344 -31.74960937 30.92960937 -31.63671875 30.26953125 C-30.64414672 24.8547684 -29.34416347 20.17771111 -26.96875 15.2109375 C-26.30875 15.2109375 -25.64875 15.2109375 -24.96875 15.2109375 C-24.906875 14.3240625 -24.845 13.4371875 -24.78125 12.5234375 C-23.37115767 6.77459952 -18.59154713 3.61720907 -13.96875 0.2109375 C-9.42246148 -1.30449201 -4.54290892 -1.82076905 0 0 Z " fill="#FBFCFD" transform="translate(487.96875,312.7890625)"/>
<path d="M0 0 C9.58139536 6.42619266 17.61795893 14.26285911 20.92578125 25.671875 C21.43707347 29.71625387 21.4577852 33.72410275 21.4609375 37.796875 C21.47318359 38.621875 21.48542969 39.446875 21.49804688 40.296875 C21.53070139 54.01177065 15.09785062 63.01042348 5.73828125 72.48828125 C3.14179027 74.52514818 1.5182809 75.09218503 -1.7265625 75.421875 C-1.7265625 76.081875 -1.7265625 76.741875 -1.7265625 77.421875 C-14.8549668 82.30686265 -26.24796187 83.34527704 -39.4609375 78.1015625 C-47.76624326 73.8296947 -53.51510929 67.0036465 -58.7265625 59.421875 C-59.49613281 58.46667969 -59.49613281 58.46667969 -60.28125 57.4921875 C-65.77091676 49.62861079 -65.59814045 38.56854692 -64.7265625 29.421875 C-62.17750044 18.04470537 -55.79778255 9.47932115 -46.7265625 2.421875 C-45.8396875 1.7 -44.9528125 0.978125 -44.0390625 0.234375 C-29.87011479 -7.51844545 -14.0958781 -8.15864577 0 0 Z " fill="#FBFCFD" transform="translate(224.7265625,164.578125)"/>
<path d="M0 0 C0.62261719 0.19464844 1.24523437 0.38929688 1.88671875 0.58984375 C12.4706752 4.10396681 21.30201668 11.37566343 27.16015625 20.8828125 C32.47454433 32.36616364 32.259778 45.89240159 29.16796875 57.92578125 C25.31751086 68.06059852 15.72211807 76.59101268 6.0546875 81.17578125 C5.37664063 81.44777344 4.69859375 81.71976563 4 82 C2.69482422 82.53560547 2.69482422 82.53560547 1.36328125 83.08203125 C-8.29105884 85.71707181 -21.4219091 85.51819362 -30.60546875 81.46875 C-39.50512501 76.00990701 -46.23209233 68.19525051 -51 59 C-51 58.01 -51 57.02 -51 56 C-51.66 56 -52.32 56 -53 56 C-55.77696227 45.09700879 -55.78110611 30.65543769 -50.67578125 20.57421875 C-43.67737768 9.82375732 -33.85074104 1.46268526 -21.25 -1.6875 C-13.84939584 -2.39909655 -7.08010486 -2.5381508 0 0 Z " fill="#FCFDFD" transform="translate(708,656)"/>
<path d="M0 0 C0.66 0.33 1.32 0.66 2 1 C3.16203888 4.48611663 3.12950712 7.22878167 3.1328125 10.90625 C3.13376923 11.58619019 3.13472595 12.26613037 3.13571167 12.9666748 C3.1363921 14.40909925 3.13454736 15.85152676 3.13037109 17.29394531 C3.125087 19.46426614 3.13028599 21.63437368 3.13671875 23.8046875 C3.14812392 44.70375217 3.14812392 44.70375217 1 49 C0.63000149 51.60444266 0.2977969 54.19979754 0 56.8125 C-0.51337474 61.24436785 -1.04011812 65.63767967 -2 70 C-4.5654594 67.4345406 -4.54046087 65.52313332 -5 62 C-4.01 61.505 -4.01 61.505 -3 61 C-2.23494984 57.25125421 -1.96855749 53.68328474 -2.0625 49.875 C-2.00162952 46.10103035 -1.36820148 44.39951901 0 41 C1.31788749 33.14451091 1.15349566 25.06578923 1.125 17.125 C1.12886719 16.02414062 1.13273438 14.92328125 1.13671875 13.7890625 C1.13478516 12.19578125 1.13478516 12.19578125 1.1328125 10.5703125 C1.13168457 9.61914551 1.13055664 8.66797852 1.12939453 7.68798828 C1.00146079 5.03034582 0.59189777 2.59036093 0 0 Z " fill="#627C98" transform="translate(807,460)"/>
<path d="M0 0 C0.33 0.99 0.66 1.98 1 3 C0.236875 3.226875 -0.52625 3.45375 -1.3125 3.6875 C-4.59947145 5.29276513 -5.2402606 6.86307325 -7 10 C-8.95133941 11.65568193 -10.71707404 12.85853702 -13 14 C-13 14.66 -13 15.32 -13 16 C-14.47503658 17.27836504 -15.95601824 18.55150981 -17.484375 19.765625 C-19.07586431 21.00300624 -19.07586431 21.00300624 -20.5625 22.6875 C-22.49062791 24.44796461 -24.55845113 25.14215851 -27 26 C-22.0510009 20.04017592 -16.72390794 14.54057377 -11.25 9.0625 C-10.38761719 8.18787109 -9.52523438 7.31324219 -8.63671875 6.41210938 C-7.81300781 5.58646484 -6.98929687 4.76082031 -6.140625 3.91015625 C-5.01962402 2.78299194 -5.01962402 2.78299194 -3.87597656 1.63305664 C-2 0 -2 0 0 0 Z " fill="#D6E0E9" transform="translate(501,606)"/>
<path d="M0 0 C0.6484375 1.80078125 0.6484375 1.80078125 1 4 C-3.37723445 9.87470939 -8.78103621 14.87497756 -14 20 C-14.66 20.66 -15.32 21.32 -16 22 C-17 23 -18 24 -19 25 C-19.99 24.67 -20.98 24.34 -22 24 C-20.37660195 22.29115995 -18.70680947 20.62553283 -17 19 C-16.34 19 -15.68 19 -15 19 C-15 18.34 -15 17.68 -15 17 C-13.85423404 15.95244255 -12.6560644 14.96190283 -11.4375 14 C-6.6507619 9.96412278 -3.37077965 5.23524215 0 0 Z " fill="#DBE6F0" transform="translate(272,247)"/>
<path d="M0 0 C-0.99 2.31 -1.98 4.62 -3 7 C-3.33 6.34 -3.66 5.68 -4 5 C-4.66 5 -5.32 5 -6 5 C-6 5.99 -6 6.98 -6 8 C-5.34 8 -4.68 8 -4 8 C-4 10.31 -4 12.62 -4 15 C-7.40858586 11.59141414 -7.93008394 6.67798535 -8.125 2 C-8.08375 1.34 -8.0425 0.68 -8 0 C-4.94736336 -0.98120464 -3.05263664 -0.98120464 0 0 Z " fill="#53708F" transform="translate(420,483)"/>
<path d="M0 0 C0 0.66 0 1.32 0 2 C-1.32 2 -2.64 2 -4 2 C-4.33 3.32 -4.66 4.64 -5 6 C-11.15234375 6.87890625 -11.15234375 6.87890625 -13 7 C-13.33 6.67 -13.66 6.34 -14 6 C-16.69082872 6.17635452 -19.32851446 6.61835921 -22 7 C-19.63968332 4.63968332 -18.60304738 4.58718262 -15.375 4.0625 C-10.3815435 3.15788831 -4.9034491 0 0 0 Z " fill="#597495" transform="translate(457,470)"/>
<path d="M0 0 C0.33 0.99 0.66 1.98 1 3 C1.99 3 2.98 3 4 3 C4 3.66 4 4.32 4 5 C4.66 5.33 5.32 5.66 6 6 C6.33 6.99 6.66 7.98 7 9 C16.05370885 9.20720114 16.05370885 9.20720114 25 8 C24 10 24 10 22.28515625 10.6171875 C19.63487126 11.06116687 17.12465794 11.13231199 14.4375 11.125 C13.48746094 11.12757813 12.53742188 11.13015625 11.55859375 11.1328125 C9 11 9 11 6 10 C6 9.34 6 8.68 6 8 C5.236875 7.773125 4.47375 7.54625 3.6875 7.3125 C0.45263699 5.73268318 -0.41641358 4.16717283 -2 1 C-1.34 0.67 -0.68 0.34 0 0 Z " fill="#5C7695" transform="translate(95,439)"/>
<path d="M0 0 C0.66 0.99 1.32 1.98 2 3 C-0.25740623 5.33524782 -2.2805761 7.18705073 -5 9 C-5.33 9.66 -5.66 10.32 -6 11 C-6.66 11 -7.32 11 -8 11 C-8.33 11.99 -8.66 12.98 -9 14 C-10.32 13.67 -11.64 13.34 -13 13 C-8.71 8.71 -4.42 4.42 0 0 Z " fill="#D3DEE7" transform="translate(562,543)"/>
<path d="M0 0 C0.66 0.99 1.32 1.98 2 3 C-1.32307692 8.78461538 -1.32307692 8.78461538 -4.75 9.875 C-5.4925 9.91625 -6.235 9.9575 -7 10 C-7.33 10.99 -7.66 11.98 -8 13 C-7.88759583 8.3914291 -6.61543768 6.27090202 -3.4375 3.125 C-2.30330262 2.07067568 -1.16107206 1.02465367 0 0 Z " fill="#48678B" transform="translate(230,563)"/>
<path d="M0 0 C0 3 0 3 -1 6 C-1.99 6.495 -1.99 6.495 -3 7 C-3.268125 7.825 -3.53625 8.65 -3.8125 9.5 C-4.204375 10.325 -4.59625 11.15 -5 12 C-7.80968687 12.93656229 -10.03799136 13 -13 13 C-8.71 8.71 -4.42 4.42 0 0 Z " fill="#D3DDE8" transform="translate(580,266)"/>
<path d="M0 0 C-0.99689595 2.49223987 -1.61522314 3.76416902 -3.9375 5.1875 C-5.60515774 5.84445608 -7.29958645 6.43319548 -9 7 C-9.70211894 8.65204456 -10.36971413 10.31923769 -11 12 C-11.99 12.495 -11.99 12.495 -13 13 C-13.33 13.99 -13.66 14.98 -14 16 C-14.99 16 -15.98 16 -17 16 C-14.54137537 10.18870542 -7.00800692 0 0 0 Z " fill="#D5E0EA" transform="translate(184,164)"/>
<path d="M0 0 C0 4.71430751 -3.01156135 7.52165337 -6 11 C-8.875 13.5 -8.875 13.5 -11 15 C-11.66 14.34 -12.32 13.68 -13 13 C-8.71 8.71 -4.42 4.42 0 0 Z " fill="#D5DFE8" transform="translate(639,466)"/>
<path d="M0 0 C0.33 0 0.66 0 1 0 C1 2.31 1 4.62 1 7 C0.34 7 -0.32 7 -1 7 C-2.67110042 9.96178773 -3.32682752 12.37071192 -3.625 15.75 C-3.69976562 16.54921875 -3.77453125 17.3484375 -3.8515625 18.171875 C-3.90054688 18.77515625 -3.94953125 19.3784375 -4 20 C-4.33 20 -4.66 20 -5 20 C-5.50114838 12.42709109 -4.98565979 7.52198875 -1 1 C-0.67 0.67 -0.34 0.34 0 0 Z " fill="#547190" transform="translate(229,450)"/>
<path d="M0 0 C0 0.66 0 1.32 0 2 C-0.99 2.495 -0.99 2.495 -2 3 C-2.33 3.66 -2.66 4.32 -3 5 C-6.45329726 6.72664863 -9.15830842 7.21952523 -13 7 C-13.33 6.01 -13.66 5.02 -14 4 C-11.36 3.67 -8.72 3.34 -6 3 C-6 2.34 -6 1.68 -6 1 C-3.92446352 0.4465236 -2.15634036 0 0 0 Z " fill="#456388" transform="translate(434,477)"/>
<path d="M0 0 C0.66 0.33 1.32 0.66 2 1 C2.62418232 9.77322925 3.02272242 16.3811614 -2.6875 23.55859375 C-3.120625 24.03425781 -3.55375 24.50992187 -4 25 C-5 22 -5 22 -4 19 C-3.01 19 -2.02 19 -1 19 C-1 17.68 -1 16.36 -1 15 C-0.34 15 0.32 15 1 15 C0.67 10.05 0.34 5.1 0 0 Z " fill="#607A96" transform="translate(672,413)"/>
<path d="M0 0 C0.33 0.99 0.66 1.98 1 3 C-3 7 -7 11 -11 15 C-11.66 14.34 -12.32 13.68 -13 13 C-12.56429687 12.64808594 -12.12859375 12.29617188 -11.6796875 11.93359375 C-7.29767503 8.30088644 -3.57436783 4.42540779 0 0 Z " fill="#DCE7EF" transform="translate(760,749)"/>
<path d="M0 0 C0.99 0.33 1.98 0.66 3 1 C3 1.66 3 2.32 3 3 C-0.41952088 6.10142591 -3.84853486 8.92426743 -8 11 C-8.66 10.67 -9.32 10.34 -10 10 C-6.7 6.7 -3.4 3.4 0 0 Z " fill="#446083" transform="translate(241,552)"/>
<path d="M0 0 C0.33 0.99 0.66 1.98 1 3 C-2.3 6.3 -5.6 9.6 -9 13 C-9.99 12.67 -10.98 12.34 -12 12 C-8.04 8.04 -4.08 4.08 0 0 Z " fill="#DEEAF3" transform="translate(651,338)"/>
<path d="M0 0 C0.33 0 0.66 0 1 0 C1.33 2.31 1.66 4.62 2 7 C0.68 7.33 -0.64 7.66 -2 8 C-2.0825 9.258125 -2.165 10.51625 -2.25 11.8125 C-2.71364236 15.72231986 -2.71364236 15.72231986 -5.0625 18 C-5.701875 18.33 -6.34125 18.66 -7 19 C-4.94235079 12.54646385 -2.57616518 6.2638737 0 0 Z " fill="#D1DDE8" transform="translate(786,593)"/>
<path d="M0 0 C-12.48519362 4.77676538 -12.48519362 4.77676538 -19 3 C-18.34 2.67 -17.68 2.34 -17 2 C-17 1.34 -17 0.68 -17 0 C-15.783125 0.20625 -14.56625 0.4125 -13.3125 0.625 C-8.26670094 1.28353462 -4.86986736 -1.47323719 0 0 Z " fill="#66819F" transform="translate(341,144)"/>
<path d="M0 0 C4.62 0 9.24 0 14 0 C14 0.66 14 1.32 14 2 C14.99 2.33 15.98 2.66 17 3 C14.35319096 2.88660796 11.70822482 2.75987127 9.0625 2.625 C8.30775391 2.5940625 7.55300781 2.563125 6.77539062 2.53125 C4.84492605 2.4273685 2.92057919 2.22104386 1 2 C0.67 1.34 0.34 0.68 0 0 Z M10 3 C12 4 12 4 12 4 Z " fill="#547496" transform="translate(690,740)"/>
<path d="M0 0 C-3.465 1.485 -3.465 1.485 -7 3 C-7 3.66 -7 4.32 -7 5 C-10.63 5 -14.26 5 -18 5 C-14.38808549 1.38808549 -4.78925782 -2.39462891 0 0 Z " fill="#BECCD9" transform="translate(466,430)"/>
<path d="M0 0 C1 3 1 3 1 5 C-0.97321053 6.3726682 -2.97543152 7.70427617 -5 9 C-5.66 9.66 -6.32 10.32 -7 11 C-7.99 10.67 -8.98 10.34 -10 10 C-6.7 6.7 -3.4 3.4 0 0 Z " fill="#416082" transform="translate(285,394)"/>
<path d="M0 0 C0.66 0.33 1.32 0.66 2 1 C2 4.96 2 8.92 2 13 C0.68 12.34 -0.64 11.68 -2 11 C-2.28571429 3.57142857 -2.28571429 3.57142857 0 0 Z " fill="#537191" transform="translate(575,631)"/>
<path d="M0 0 C0.66 0.33 1.32 0.66 2 1 C1.51789062 1.47050781 1.03578125 1.94101562 0.5390625 2.42578125 C-0.09257813 3.04839844 -0.72421875 3.67101562 -1.375 4.3125 C-2.00148438 4.92738281 -2.62796875 5.54226563 -3.2734375 6.17578125 C-5.18086607 8.08812528 -5.18086607 8.08812528 -7 11 C-7.99 11 -8.98 11 -10 11 C-8.55218207 7.55571735 -6.72305391 5.63869038 -3.875 3.25 C-3.15054688 2.63640625 -2.42609375 2.0228125 -1.6796875 1.390625 C-0.84824219 0.70226562 -0.84824219 0.70226562 0 0 Z " fill="#D2DFE9" transform="translate(672,661)"/>
<path d="M0 0 C0.33 1.32 0.66 2.64 1 4 C-0.07543783 4.98783194 -1.16073217 5.96493943 -2.25 6.9375 C-3.15492188 7.75541016 -3.15492188 7.75541016 -4.078125 8.58984375 C-6.08467305 10.06212799 -7.57002449 10.57529189 -10 11 C-6.79239749 7.19364503 -3.59253891 3.45436433 0 0 Z " fill="#D4DEE9" transform="translate(667,438)"/>
<path d="M0 0 C0.66 0.99 1.32 1.98 2 3 C0.37660195 4.70884005 -1.29319053 6.37446717 -3 8 C-3.66 8 -4.32 8 -5 8 C-5.33 8.66 -5.66 9.32 -6 10 C-6.99 9.67 -7.98 9.34 -9 9 C-6.03 6.03 -3.06 3.06 0 0 Z " fill="#D7E0EA" transform="translate(455,650)"/>
<path d="M0 0 C0.33 1.32 0.66 2.64 1 4 C0.236875 4.5775 -0.52625 5.155 -1.3125 5.75 C-3.66200917 7.71703093 -5.29323505 9.48476744 -7 12 C-7.74609375 10.265625 -7.74609375 10.265625 -8 8 C-6.34765625 5.859375 -6.34765625 5.859375 -4.0625 3.75 C-3.31097656 3.04359375 -2.55945313 2.3371875 -1.78515625 1.609375 C-1.19605469 1.07828125 -0.60695313 0.5471875 0 0 Z " fill="#D2DFE9" transform="translate(535,570)"/>
<path d="M0 0 C0.70710678 1.64991582 1.37943989 3.31562256 2 5 C-0.91517292 3.92598892 -2.77810176 3.22189824 -5 1 C-7.06874034 0.3574765 -7.06874034 0.3574765 -9 0 C-9 0.66 -9 1.32 -9 2 C-9.66 1.67 -10.32 1.34 -11 1 C-10.67 0.34 -10.34 -0.32 -10 -1 C-8.22265625 -1.484375 -8.22265625 -1.484375 -6.0625 -1.75 C-5.35222656 -1.84796875 -4.64195312 -1.9459375 -3.91015625 -2.046875 C-2 -2 -2 -2 0 0 Z " fill="#4B6889" transform="translate(651,762)"/>
<path d="M0 0 C0.66 0.33 1.32 0.66 2 1 C1.34 1.66 0.68 2.32 0 3 C0.33 3.66 0.66 4.32 1 5 C-3.21015871 5.95685425 -5.25712373 6.13181214 -9 4 C-7.54618103 3.30300448 -6.08677047 2.61766134 -4.625 1.9375 C-3.40683594 1.36322266 -3.40683594 1.36322266 -2.1640625 0.77734375 C-1.44992187 0.52082031 -0.73578125 0.26429687 0 0 Z " fill="#547292" transform="translate(287,121)"/>
<path d="M0 0 C0.33 0.66 0.66 1.32 1 2 C-0.97764782 6.06516496 -3.7373124 8.91367389 -7 12 C-7.66 11.34 -8.32 10.68 -9 10 C-8.27683594 9.29423828 -8.27683594 9.29423828 -7.5390625 8.57421875 C-6.90742187 7.95160156 -6.27578125 7.32898438 -5.625 6.6875 C-4.68527344 5.76517578 -4.68527344 5.76517578 -3.7265625 4.82421875 C-1.81913393 2.91187472 -1.81913393 2.91187472 0 0 Z " fill="#55708F" transform="translate(732,721)"/>
<path d="M0 0 C0.66 1.32 1.32 2.64 2 4 C0.1875 6 0.1875 6 -2 8 C-2.99 8 -3.98 8 -5 8 C-4.45773019 4.20411134 -2.79872437 2.52788007 0 0 Z " fill="#3B5C7E" transform="translate(247,546)"/>
<path d="M0 0 C0.33 0 0.66 0 1 0 C0.67 2.31 0.34 4.62 0 7 C-1.65 7.66 -3.3 8.32 -5 9 C-5.33 8.01 -5.66 7.02 -6 6 C-5.01 5.01 -4.02 4.02 -3 3 C-2.67 3.66 -2.34 4.32 -2 5 C-1.34 3.35 -0.68 1.7 0 0 Z " fill="#456386" transform="translate(128,432)"/>
<path d="M0 0 C1.64826111 2.96687001 2.44271087 5.65626525 3 9 C1.68 9.33 0.36 9.66 -1 10 C-2.25 3.375 -2.25 3.375 0 0 Z " fill="#3D5C80" transform="translate(482,414)"/>
<path d="M0 0 C2.31 1.98 4.62 3.96 7 6 C6.67 6.99 6.34 7.98 6 9 C5.01 8.67 4.02 8.34 3 8 C3 7.34 3 6.68 3 6 C2.01 5.67 1.02 5.34 0 5 C0 3.35 0 1.7 0 0 Z " fill="#466384" transform="translate(558,297)"/>
<path d="M0 0 C0.99 0.66 1.98 1.32 3 2 C1.35 3.98 -0.3 5.96 -2 8 C-2.33 7.34 -2.66 6.68 -3 6 C-3.66 5.67 -4.32 5.34 -5 5 C-3.35 3.35 -1.7 1.7 0 0 Z " fill="#416184" transform="translate(638,639)"/>
<path d="M0 0 C1.4046544 5.21728776 2.40796105 9.68103602 1 15 C0.67 15 0.34 15 0 15 C-2.11161731 5.58997722 -2.11161731 5.58997722 -3 1 C-2.67 1.66 -2.34 2.32 -2 3 C-1.34 3 -0.68 3 0 3 C0 2.01 0 1.02 0 0 Z " fill="#597593" transform="translate(423,515)"/>
<path d="M0 0 C3.76607955 1.25535985 4.26441793 2.52883585 6 6 C6 6.99 6 7.98 6 9 C4.85073734 8.04578192 3.70569459 7.08647955 2.5625 6.125 C1.92441406 5.59132813 1.28632813 5.05765625 0.62890625 4.5078125 C-1 3 -1 3 -2 1 C-1.34 0.67 -0.68 0.34 0 0 Z " fill="#425E81" transform="translate(276,379)"/>
<path d="M0 0 C-1.44077046 3.36179774 -3.24750021 5.59156268 -6 8 C-6.66 8 -7.32 8 -8 8 C-5.18918919 0 -5.18918919 0 0 0 Z " fill="#3A5A7C" transform="translate(643,345)"/>
<path d="M0 0 C1.14926266 0.95421808 2.29430541 1.91352045 3.4375 2.875 C4.07558594 3.40867188 4.71367187 3.94234375 5.37109375 4.4921875 C7 6 7 6 8 8 C5.69 7.67 3.38 7.34 1 7 C0.31292445 4.50935112 0 2.62113708 0 0 Z " fill="#425F83" transform="translate(498,237)"/>
<path d="M0 0 C0.33 0.66 0.66 1.32 1 2 C-0.87577357 6.06417607 -2.93582393 8.12422643 -7 10 C-7.66 9.67 -8.32 9.34 -9 9 C-6.03 6.03 -3.06 3.06 0 0 Z " fill="#D2DCE6" transform="translate(656,449)"/>
<path d="M0 0 C2.5625 1.9375 2.5625 1.9375 5 5 C5.14543237 8.10601995 4.6663569 10.97170479 4 14 C1.59960958 9.32024725 0 5.32695729 0 0 Z " fill="#C0CEDC" transform="translate(479,400)"/>
<path d="M0 0 C0 3.63053243 -1.2278255 4.95750337 -3.5546875 7.63671875 C-5.49136818 9.46347972 -7.46012234 10.27432067 -10 11 C-6.79239749 7.19364503 -3.59253891 3.45436433 0 0 Z " fill="#446383" transform="translate(324,355)"/>
<path d="M0 0 C4.26086957 6.39130435 4.26086957 6.39130435 3.625 10.3125 C3.41875 10.869375 3.2125 11.42625 3 12 C2.01 11.67 1.02 11.34 0 11 C0 7.37 0 3.74 0 0 Z " fill="#54728F" transform="translate(279,170)"/>
<path d="M0 0 C0.66 0.99 1.32 1.98 2 3 C0.71034824 4.37562854 -0.62689293 5.70766393 -2 7 C-2.66 7 -3.32 7 -4 7 C-4.33 7.66 -4.66 8.32 -5 9 C-5.66 8.34 -6.32 7.68 -7 7 C-4.69 4.69 -2.38 2.38 0 0 Z " fill="#DDE6EF" transform="translate(258,588)"/>
<path d="M0 0 C0.66 0.33 1.32 0.66 2 1 C0.576875 2.36125 0.576875 2.36125 -0.875 3.75 C-3.14549867 6.00978877 -4.83296506 7.96570916 -6 11 C-6.66 11 -7.32 11 -8 11 C-6.60366572 6.55711819 -4.39598172 4.13475236 -1 1 C-0.67 0.67 -0.34 0.34 0 0 Z " fill="#CFDCE7" transform="translate(471,315)"/>
<path d="M0 0 C0.33 0.99 0.66 1.98 1 3 C1.66 3.33 2.32 3.66 3 4 C2.625 6.4375 2.625 6.4375 2 9 C1.01 9.495 1.01 9.495 0 10 C0 9.34 0 8.68 0 8 C-0.66 7.67 -1.32 7.34 -2 7 C-1.34 4.69 -0.68 2.38 0 0 Z " fill="#436288" transform="translate(115,300)"/>
<path d="M0 0 C2.64 0.33 5.28 0.66 8 1 C8 1.99 8 2.98 8 4 C5.36 4 2.72 4 0 4 C0 2.68 0 1.36 0 0 Z " fill="#F2F7FA" transform="translate(552,656)"/>
<path d="M0 0 C0.66 0 1.32 0 2 0 C0.60667426 3.36720387 -0.9789286 4.9859524 -4 7 C-4.66 6.67 -5.32 6.34 -6 6 C-6 5.01 -6 4.02 -6 3 C-4.02 2.67 -2.04 2.34 0 2 C0 1.34 0 0.68 0 0 Z " fill="#3B597D" transform="translate(655,331)"/>
<path d="M0 0 C0.66 0 1.32 0 2 0 C1.67 1.65 1.34 3.3 1 5 C0.34 5 -0.32 5 -1 5 C-1.33 5.99 -1.66 6.98 -2 8 C-2.99 8.33 -3.98 8.66 -5 9 C-3.7580393 5.56072421 -2.44259716 2.74792181 0 0 Z " fill="#506B8A" transform="translate(138,256)"/>
<path d="M0 0 C0.33 0 0.66 0 1 0 C1.33 3.63 1.66 7.26 2 11 C0.68 11.33 -0.64 11.66 -2 12 C-1.34 8.04 -0.68 4.08 0 0 Z " fill="#567291" transform="translate(738,704)"/>
<path d="M0 0 C1.0625 1.8125 1.0625 1.8125 2 4 C1.67 4.99 1.34 5.98 1 7 C0.34 7 -0.32 7 -1 7 C-1.33 7.66 -1.66 8.32 -2 9 C-2.66 9 -3.32 9 -4 9 C-2.80100302 5.9168649 -1.52299523 2.93720508 0 0 Z " fill="#466589" transform="translate(627,652)"/>
<path d="M0 0 C-0.75 2.4375 -0.75 2.4375 -2 5 C-4.49476051 6.04618989 -6.26856911 6 -9 6 C-8.07213211 4.99105628 -7.13231567 3.99309093 -6.1875 3 C-5.66542969 2.443125 -5.14335937 1.88625 -4.60546875 1.3125 C-3 0 -3 0 0 0 Z " fill="#425E81" transform="translate(257,539)"/>
<path d="M0 0 C2 3 2 3 1.75 5 C1 7 1 7 -1 10 C-1 9.34 -1 8.68 -1 8 C-1.66 8 -2.32 8 -3 8 C-2.45276317 4.62537285 -1.9451 2.91765 0 0 Z " fill="#4B698D" transform="translate(476,389)"/>
<path d="M0 0 C1.32 0.33 2.64 0.66 4 1 C1.03 4.96 1.03 4.96 -2 9 C-3 5 -3 5 -2.125 2.8125 C-1 1 -1 1 0 0 Z " fill="#405D81" transform="translate(270,245)"/>
<path d="M0 0 C-1.39332574 3.36720387 -2.9789286 4.9859524 -6 7 C-5.625 4.0625 -5.625 4.0625 -5 1 C-3 0 -3 0 0 0 Z " fill="#3C5A83" transform="translate(329,659)"/>
<path d="M0 0 C2.31 0.66 4.62 1.32 7 2 C7.33 3.32 7.66 4.64 8 6 C5 6 5 6 3.61328125 4.6875 C2.40885417 3.125 1.20442708 1.5625 0 0 Z " fill="#416082" transform="translate(519,625)"/>
<path d="M0 0 C0.99 0.33 1.98 0.66 3 1 C-0.96 4.465 -0.96 4.465 -5 8 C-5.66 7.67 -6.32 7.34 -7 7 C-4.69 4.69 -2.38 2.38 0 0 Z " fill="#435F80" transform="translate(369,310)"/>
<path d="M0 0 C0.33 1.32 0.66 2.64 1 4 C0.01 4.495 0.01 4.495 -1 5 C-2.13350534 7.01669827 -2.13350534 7.01669827 -3 9 C-3.33 8.34 -3.66 7.68 -4 7 C-4.66 6.67 -5.32 6.34 -6 6 C-4.02 4.02 -2.04 2.04 0 0 Z " fill="#DAE3ED" transform="translate(594,252)"/>
<path d="M0 0 C-1.6875 2.5 -1.6875 2.5 -4 5 C-6.75 5.3125 -6.75 5.3125 -9 5 C-7.93411431 2.09303901 -7.29651501 1.15567038 -4.5 -0.3125 C-2 -1 -2 -1 0 0 Z " fill="#4E6A90" transform="translate(221,243)"/>
<path d="M0 0 C0.99 1.32 1.98 2.64 3 4 C1.625 6.5 1.625 6.5 0 9 C-0.66 9 -1.32 9 -2 9 C-1.125 2.25 -1.125 2.25 0 0 Z " fill="#476485" transform="translate(773,459)"/>
<path d="M0 0 C0.33 0 0.66 0 1 0 C1.06058594 0.77085937 1.12117188 1.54171875 1.18359375 2.3359375 C1.26738281 3.33882813 1.35117188 4.34171875 1.4375 5.375 C1.51871094 6.37273437 1.59992188 7.37046875 1.68359375 8.3984375 C1.84965626 10.97927613 1.84965626 10.97927613 3 13 C2.0625 15.125 2.0625 15.125 1 17 C-0.18681726 13.43954823 -0.09689832 10.56191663 -0.0625 6.8125 C-0.05347656 5.54019531 -0.04445313 4.26789063 -0.03515625 2.95703125 C-0.02355469 1.98121094 -0.01195313 1.00539063 0 0 Z " fill="#59728E" transform="translate(90,421)"/>
<path d="M0 0 C1.125 3.75 1.125 3.75 0 6 C0.66 6.33 1.32 6.66 2 7 C1.67 7.66 1.34 8.32 1 9 C0.34 9 -0.32 9 -1 9 C-2.62514468 10.45833358 -2.62514468 10.45833358 -4 12 C-2.66666667 8 -1.33333333 4 0 0 Z " fill="#BFCDDC" transform="translate(461,328)"/>
<path d="M0 0 C0.99 0.33 1.98 0.66 3 1 C1.6875 3 1.6875 3 0 5 C-0.99 5 -1.98 5 -3 5 C-3 5.66 -3 6.32 -3 7 C-3.66 6.67 -4.32 6.34 -5 6 C-3.35 4.02 -1.7 2.04 0 0 Z " fill="#4E6A89" transform="translate(143,146)"/>
<path d="M0 0 C1.10493755 3.31481265 1.05432279 5.66131116 0 9 C-0.99 9.66 -1.98 10.32 -3 11 C-2.32829194 7.1936543 -1.27253436 3.64793184 0 0 Z " fill="#C0CEDD" transform="translate(790,582)"/>
<path d="M0 0 C0.6875 1.8125 0.6875 1.8125 1 4 C-0.4375 5.75 -0.4375 5.75 -2 7 C-2.99 6.34 -3.98 5.68 -5 5 C-3.35 3.35 -1.7 1.7 0 0 Z " fill="#436183" transform="translate(557,236)"/>
<path d="M0 0 C1.0625 1.8125 1.0625 1.8125 2 4 C1.67 4.99 1.34 5.98 1 7 C-1.0625 7.6875 -1.0625 7.6875 -3 8 C-1.125 2.25 -1.125 2.25 0 0 Z " fill="#DEE6EF" transform="translate(772,729)"/>
<path d="M0 0 C0.33 0 0.66 0 1 0 C1.3125 2.25 1.3125 2.25 1 5 C-1.5 7.3125 -1.5 7.3125 -4 9 C-4.66 8.67 -5.32 8.34 -6 8 C-5.195625 7.236875 -4.39125 6.47375 -3.5625 5.6875 C-0.83200976 3.20569102 -0.83200976 3.20569102 0 0 Z " fill="#CEDCE8" transform="translate(575,645)"/>
<path d="M0 0 C0.33 1.32 0.66 2.64 1 4 C-0.65 5.32 -2.3 6.64 -4 8 C-4.66 7.34 -5.32 6.68 -6 6 C-4.02 4.02 -2.04 2.04 0 0 Z " fill="#D1DCE6" transform="translate(621,484)"/>
<path d="M0 0 C0.66 0.66 1.32 1.32 2 2 C0.35 3.65 -1.3 5.3 -3 7 C-3.99 6.67 -4.98 6.34 -6 6 C-4.02 4.02 -2.04 2.04 0 0 Z " fill="#DAE3EC" transform="translate(601,245)"/>
<path d="M0 0 C0.99 0.33 1.98 0.66 3 1 C-0.465 3.97 -0.465 3.97 -4 7 C-4.66 6.67 -5.32 6.34 -6 6 C-4.02 4.02 -2.04 2.04 0 0 Z " fill="#436081" transform="translate(441,238)"/>
<path d="M0 0 C0.66 0 1.32 0 2 0 C2 0.99 2 1.98 2 3 C3.65 3.33 5.3 3.66 7 4 C6.01 4.66 5.02 5.32 4 6 C2.35 5.01 0.7 4.02 -1 3 C-0.67 2.01 -0.34 1.02 0 0 Z " fill="#405B7C" transform="translate(457,802)"/>
<path d="M0 0 C1.0625 1.875 1.0625 1.875 2 4 C1.67 4.66 1.34 5.32 1 6 C0.01 5.67 -0.98 5.34 -2 5 C-2.33 5.99 -2.66 6.98 -3 8 C-2.25 2.25 -2.25 2.25 0 0 Z " fill="#546E8D" transform="translate(454,778)"/>
<path d="M0 0 C1.125 3.75 1.125 3.75 0 6 C-0.66 6 -1.32 6 -2 6 C-2 6.66 -2 7.32 -2 8 C-2.66 7.67 -3.32 7.34 -4 7 C-1.125 1.125 -1.125 1.125 0 0 Z " fill="#CBDAE5" transform="translate(661,672)"/>
<path d="M0 0 C0.99 0.33 1.98 0.66 3 1 C-0.465 3.97 -0.465 3.97 -4 7 C-4.66 6.67 -5.32 6.34 -6 6 C-4.02 4.02 -2.04 2.04 0 0 Z " fill="#D9E5F1" transform="translate(368,621)"/>
<path d="M0 0 C-1.36983503 3.16115776 -1.9890638 3.9927092 -5 6 C-5 4.35 -5 2.7 -5 1 C-3 0 -3 0 0 0 Z " fill="#3E5A7E" transform="translate(367,621)"/>
<path d="M0 0 C1.2380014 3.57644848 0.74926071 6.33694766 0 10 C-0.66 10 -1.32 10 -2 10 C-2.33 10.66 -2.66 11.32 -3 12 C-2.25749403 7.91621717 -1.17076699 3.98060777 0 0 Z " fill="#7A8FAA" transform="translate(759,550)"/>
<path d="M0 0 C2.25 0.25 2.25 0.25 4 1 C3.01 1.33 2.02 1.66 1 2 C0.67 2.99 0.34 3.98 0 5 C-1.32 4.67 -2.64 4.34 -4 4 C-2.25 1.9375 -2.25 1.9375 0 0 Z " fill="#DCE4EA" transform="translate(553,552)"/>
<path d="M0 0 C2 1.375 2 1.375 4 3 C4 3.66 4 4.32 4 5 C3.34 5 2.68 5 2 5 C1.67 5.66 1.34 6.32 1 7 C0.01 5.02 -0.98 3.04 -2 1 C-1.34 0.67 -0.68 0.34 0 0 Z " fill="#47658A" transform="translate(655,538)"/>
<path d="M0 0 C0.33 1.32 0.66 2.64 1 4 C0.01 4.33 -0.98 4.66 -2 5 C-2.33 5.66 -2.66 6.32 -3 7 C-3.99 6.67 -4.98 6.34 -6 6 C-5.38125 5.7525 -4.7625 5.505 -4.125 5.25 C-1.64931313 3.79371361 -1.04874998 2.62187494 0 0 Z " fill="#D6DFE9" transform="translate(580,525)"/>
<path d="M0 0 C0.99 0.33 1.98 0.66 3 1 C1.35 2.65 -0.3 4.3 -2 6 C-2.99 5.67 -3.98 5.34 -5 5 C-3.35 3.35 -1.7 1.7 0 0 Z " fill="#425F7F" transform="translate(408,271)"/>
<path d="M0 0 C2.31 1.98 4.62 3.96 7 6 C6.34 6.66 5.68 7.32 5 8 C0 2.25 0 2.25 0 0 Z " fill="#4A6786" transform="translate(375,258)"/>
<path d="M0 0 C0.33 0.66 0.66 1.32 1 2 C1.66 2.33 2.32 2.66 3 3 C1.68 3.33 0.36 3.66 -1 4 C-1.12375 4.804375 -1.2475 5.60875 -1.375 6.4375 C-1.58125 7.283125 -1.7875 8.12875 -2 9 C-2.99 9.495 -2.99 9.495 -4 10 C-2.99806563 6.20696275 -2.18975773 3.28463659 0 0 Z " fill="#C1CFDF" transform="translate(166,180)"/>
<path d="M0 0 C1.65 0.33 3.3 0.66 5 1 C3.25 3.0625 3.25 3.0625 1 5 C-1.25 4.75 -1.25 4.75 -3 4 C-2.34 3.34 -1.68 2.68 -1 2 C-0.67 1.34 -0.34 0.68 0 0 Z " fill="#496687" transform="translate(438,123)"/>
<path d="M0 0 C0.33 0.99 0.66 1.98 1 3 C-0.28965176 4.37562854 -1.62689293 5.70766393 -3 7 C-3.66 7 -4.32 7 -5 7 C-3.70700306 4.11562221 -2.34058637 2.12780579 0 0 Z " fill="#C6D4E2" transform="translate(760,749)"/>
<path d="M0 0 C0.33 0.99 0.66 1.98 1 3 C-0.96466413 4.06775224 -2.96855359 5.06553465 -5 6 C-5.66 5.67 -6.32 5.34 -7 5 C-2.25 0 -2.25 0 0 0 Z " fill="#BFD1E0" transform="translate(501,606)"/>
<path d="M0 0 C0.33 1.32 0.66 2.64 1 4 C-0.32 4.99 -1.64 5.98 -3 7 C-3.66 6.34 -4.32 5.68 -5 5 C-3.35 3.35 -1.7 1.7 0 0 Z " fill="#506B8A" transform="translate(427,571)"/>
<path d="M0 0 C0.66 0.99 1.32 1.98 2 3 C1.01 4.485 1.01 4.485 0 6 C-1.32 5.34 -2.64 4.68 -4 4 C-2.68 2.68 -1.36 1.36 0 0 Z " fill="#416382" transform="translate(230,563)"/>
<path d="M0 0 C0.33 1.32 0.66 2.64 1 4 C-1.375 5.5625 -1.375 5.5625 -4 7 C-4.66 6.67 -5.32 6.34 -6 6 C-4.02 4.02 -2.04 2.04 0 0 Z " fill="#CED9E4" transform="translate(545,560)"/>
<path d="M0 0 C0 1.66666667 0 3.33333333 0 5 C-0.66 5 -1.32 5 -2 5 C-2.33 5.66 -2.66 6.32 -3 7 C-3.99 6.67 -4.98 6.34 -6 6 C-4.02 4.02 -2.04 2.04 0 0 Z " fill="#D4DDE9" transform="translate(293,553)"/>
<path d="M0 0 C-0.75 1.9375 -0.75 1.9375 -2 4 C-4.49470772 4.96569331 -6.29745539 5 -9 5 C-6.45523312 2.20075644 -3.92372883 0 0 0 Z " fill="#E1EAF0" transform="translate(576,274)"/>
<path d="M0 0 C0.33 0.66 0.66 1.32 1 2 C-0.32 3.65 -1.64 5.3 -3 7 C-3.99 6.67 -4.98 6.34 -6 6 C-4.02 4.02 -2.04 2.04 0 0 Z " fill="#486583" transform="translate(538,255)"/>
<path d="M0 0 C1.32 0.66 2.64 1.32 4 2 C-0.95 3.485 -0.95 3.485 -6 5 C-2.25 1.125 -2.25 1.125 0 0 Z " fill="#4C6989" transform="translate(351,137)"/>
</svg>
